<?xml version="1.0" encoding="UTF-8"?><svg id="Layer_36" xmlns="http://www.w3.org/2000/svg" viewBox="0 0 32 31.59"><path d="M29.09,4.37l-9.91,9.88c-.46.46-1.23.37-1.64-.05s-.47-1.19-.01-1.65L27.4,2.68l-4.16-.03c-.64,0-1.08-.57-1.08-1.18.01-.7.54-1.21,1.24-1.21h6.88c.69,0,1.21.53,1.21,1.21v6.89c0,.67-.55,1.18-1.18,1.19s-1.18-.48-1.21-1.15l-.03-4.03Z"/><path d="M8.84,24.64l-4.19,4.21,5.2.02c.66,0,1.17.49,1.2,1.13s-.41,1.27-1.08,1.27l-8.18.02c-.65,0-1.3-.44-1.3-1.14v-7.72c0-.67.65-1.13,1.23-1.11.65.03,1.15.54,1.15,1.21l.02,4.63,3.27-3.27.95-.95c.4-.41,1.07-.47,1.54-.12.59.43.67,1.27.18,1.83Z"/><path d="M13.8,19.68c-.31.33-.73.44-1.16.35-.37-.08-.73-.38-.84-.79s-.03-.87.27-1.19c.25-.26.48-.52.76-.75.44-.38,1.08-.41,1.53-.04.53.44.57,1.21.13,1.74-.21.25-.44.44-.67.69Z"/><circle cx="10.46" cy="21.31" r="1.16"/></svg>