<?xml version="1.0" encoding="UTF-8"?><svg id="Layer_43" xmlns="http://www.w3.org/2000/svg" viewBox="0 0 32.02 31.55"><circle cx="8.31" cy="23.49" r="1.89"/><path d="M8.02,31.27h-1.7c-3.06-.55-5.27-2.76-5.81-5.81v-1.7c.3-1.52.9-2.86,1.99-3.94l4.07-4.06c1.25-1.25,2.93-1.92,4.72-1.9.55,0,.87.57.84.99-.09,1.61-2.12.18-4.21,2.27l-4.12,4.12c-1.86,1.86-1.8,4.84,0,6.67s4.79,1.98,6.67.11l4.12-4.11c.9-.89,1.37-2.04,1.42-3.3.02-.63.58-1.03,1.11-.95.6.1.86.59.81,1.18-.14,1.75-.81,3.27-2.04,4.5l-3.87,3.88c-1.14,1.14-2.49,1.74-4.01,2.05Z"/><path d="M25.7.27c3.06.55,5.26,2.76,5.81,5.81v1.7c-.3,1.53-.9,2.86-1.99,3.94l-4,3.98c-.38.38-1.01.27-1.33-.08s-.35-.94.03-1.32l3.93-3.93c1.91-1.91,1.88-4.95,0-6.8s-4.86-1.83-6.74.06l-4.05,4.06c-2.1,2.1-.65,4.13-2.27,4.21-.43.02-.98-.3-.99-.84-.04-1.87.72-3.55,2.02-4.85l3.87-3.88c1.13-1.14,2.5-1.74,4.01-2.05h1.7Z"/><path d="M12.88,20.29c-.45.45-1.05.31-1.36,0-.4-.39-.4-.99,0-1.4l10.59-10.58c.38-.37.99-.3,1.33.04.29.3.43.92.02,1.33l-10.59,10.6Z"/></svg>