<?xml version="1.0" encoding="UTF-8"?>
<svg version="1.1" xmlns="http://www.w3.org/2000/svg" width="512" height="512">
<path d="M0 0 C1.01699114 -0.00297112 2.03398229 -0.00594224 3.08179134 -0.0090034 C6.48226525 -0.01766001 9.88270382 -0.01919609 13.28318787 -0.02069092 C15.72452875 -0.02532128 18.16586892 -0.03034623 20.60720825 -0.03573608 C27.23562071 -0.04884198 33.86402585 -0.05533884 40.49244809 -0.05974674 C44.63695417 -0.06251541 48.78145794 -0.06675391 52.92596245 -0.07125092 C64.4169287 -0.08343965 75.90789312 -0.09373934 87.3988657 -0.09712601 C88.1335008 -0.09734557 88.86813589 -0.09756514 89.62503266 -0.09779136 C90.72951846 -0.09811878 90.72951846 -0.09811878 91.8563171 -0.09845281 C93.34821673 -0.09889626 94.84011636 -0.09934282 96.33201599 -0.09979248 C97.07203883 -0.10001391 97.81206166 -0.10023534 98.57450943 -0.10046348 C110.55357471 -0.10440776 122.53257902 -0.12185224 134.51162077 -0.145152 C146.83130758 -0.16891946 159.15096388 -0.18133033 171.47067398 -0.18249393 C178.37922136 -0.18340773 185.2876893 -0.18908518 192.19621468 -0.20731354 C198.69938886 -0.22441273 205.2024529 -0.22592699 211.70564461 -0.21717453 C214.08474633 -0.21640663 216.4638563 -0.22071407 218.84293747 -0.23063278 C238.08504065 -0.30611324 257.05820482 0.10530144 271.9528656 14.16387939 C282.26570551 25.43449925 287.09426076 38.07263318 287.02215576 53.22828674 C287.02598131 54.09730643 287.02980686 54.96632612 287.03374833 55.86167973 C287.04399815 58.74934122 287.04010151 61.63680088 287.03611755 64.5244751 C287.0404685 66.60482974 287.04565292 68.68518277 287.05160522 70.76553345 C287.06496606 76.39994219 287.06557708 82.03428373 287.06304193 87.66870522 C287.06197012 92.38021353 287.066861 97.09170836 287.07164735 101.80321378 C287.0827327 112.92336458 287.08318556 124.0434816 287.07713318 135.16363525 C287.07109507 146.61696694 287.08340255 158.07017572 287.10470325 169.52348644 C287.12234525 179.3734634 287.12831646 189.22340135 287.12506551 199.07339352 C287.12325647 204.94897536 287.12585079 210.82446954 287.13978004 216.700037 C287.15239584 222.22818346 287.15037878 227.75613901 287.13736916 233.28428268 C287.1350119 235.30623503 287.13770733 237.32820097 287.14599228 239.35013771 C287.21841039 258.40676506 284.79011615 273.53194954 271.1794281 287.91778564 C260.14851496 298.05767187 246.94429327 301.29386546 232.39520264 301.28088379 C231.35244791 301.28385491 230.30969318 301.28682603 229.23533982 301.28988719 C225.74184092 301.29855754 222.24837636 301.30008104 218.75486755 301.30157471 C216.24969408 301.30620405 213.74452131 301.31122887 211.23934937 301.31661987 C204.43339774 301.32973451 197.6274574 301.33622397 190.82149529 301.34063053 C186.56830423 301.34339718 182.31511542 301.34763529 178.06192589 301.3521347 C166.27589848 301.36432403 154.48987288 301.37462405 142.7038393 301.3780098 C141.95010873 301.37822936 141.19637816 301.37844893 140.41980727 301.37867515 C139.66431923 301.37889343 138.9088312 301.3791117 138.13044959 301.3793366 C136.59965662 301.37978005 135.06886365 301.38022662 133.53807068 301.38067627 C132.39909224 301.38100841 132.39909224 301.38100841 131.23710414 301.38134727 C118.93908956 301.38529357 106.64113429 301.40274397 94.34314261 301.42603579 C81.70370848 301.4497802 69.06430408 301.46221305 56.4248473 301.46337771 C49.33361687 301.46429273 42.24246373 301.47000129 35.15125465 301.48819733 C28.47900505 301.50525855 21.80692684 301.50682791 15.13465309 301.49805832 C12.68978991 301.49728856 10.24491881 301.50162251 7.80007553 301.51151657 C4.4540884 301.5242602 1.10861833 301.51834573 -2.23736572 301.50793457 C-3.19731451 301.51599097 -4.1572633 301.52404738 -5.14630145 301.53234792 C-19.48989931 301.42847187 -31.63637144 296.29917644 -41.9846344 286.45294189 C-51.56396666 276.6245802 -56.38876125 265.16205654 -56.38571167 251.47077942 C-56.38938836 250.58631966 -56.39306505 249.7018599 -56.39685315 248.79059833 C-56.40788435 245.82069983 -56.41173294 242.85083633 -56.4155426 239.88092041 C-56.42180784 237.75366607 -56.4284547 235.62641282 -56.43545532 233.49916077 C-56.45649669 226.50589764 -56.46686004 219.51263431 -56.4768219 212.51934814 C-56.48086989 210.11005072 -56.48498682 207.70075341 -56.48917198 205.29145622 C-56.5082264 193.968265 -56.52245506 182.64508029 -56.53078395 171.32187611 C-56.54054777 158.26410255 -56.56684405 145.20649889 -56.60728484 132.14878517 C-56.6374869 122.04922042 -56.65225685 111.94970424 -56.65556496 101.85009521 C-56.65791141 95.82178106 -56.66681886 89.79364835 -56.69202614 83.76538277 C-56.71538228 78.08789472 -56.71950969 72.41070662 -56.70926476 66.73318291 C-56.70877107 64.65681839 -56.71504189 62.58043873 -56.7288208 60.50411987 C-56.84087957 42.60704977 -54.63395233 28.20095472 -42.05104065 14.39044189 C-30.02891033 3.15177625 -15.8415085 -0.01455921 0 0 Z M103.76145935 86.14044189 C99.67953321 91.83763405 99.20948686 96.11400895 99.37083435 103.01153564 C99.37932404 104.39502953 99.37932404 104.39502953 99.38798523 105.80647278 C99.41024298 108.73084048 99.46041889 111.65394921 99.51145935 114.57794189 C99.53153808 116.56946056 99.54978644 118.56099858 99.56614685 120.55255127 C99.61007295 125.41566106 99.67902622 130.27783857 99.76145935 135.14044189 C98.55086853 135.12473145 97.34027771 135.109021 96.09300232 135.09283447 C91.58672277 135.03839221 87.08047212 135.00403982 82.57395935 134.97564697 C80.62631841 134.9605929 78.67871119 134.94014509 76.73118591 134.91412354 C73.92608807 134.87759136 71.12143981 134.86068156 68.31614685 134.84747314 C67.01736099 134.82424736 67.01736099 134.82424736 65.69233704 134.80055237 C59.08938686 134.79872864 54.99035315 136.15920296 49.94895935 140.64044189 C46.38791747 144.71020405 46.41248186 148.4469384 46.48802185 153.63653564 C46.90143374 157.42220742 48.18992668 159.37109902 50.76145935 162.14044189 C56.49569861 166.18249714 60.71685816 166.69283938 67.6325531 166.53106689 C68.55488235 166.5254071 69.47721161 166.51974731 70.42749023 166.51391602 C73.35185793 166.49165827 76.27496667 166.44148236 79.19895935 166.39044189 C81.19047802 166.37036316 83.18201604 166.3521148 85.17356873 166.33575439 C90.03667852 166.2918283 94.89885603 166.22287502 99.76145935 166.14044189 C99.74051208 167.37608887 99.71956482 168.61173584 99.69798279 169.88482666 C99.62532482 174.48985099 99.57956595 179.09482511 99.54173279 183.70025635 C99.52167598 185.68960098 99.4944235 187.67888708 99.45970154 189.66802979 C99.41092165 192.53528321 99.38843108 195.401754 99.37083435 198.26934814 C99.35018921 199.15191788 99.32954407 200.03448761 99.30827332 200.94380188 C99.30614023 206.87687018 100.3280626 210.26967263 103.76145935 215.14044189 C107.3381023 218.46161034 110.05626822 219.40792022 114.82395935 219.57794189 C119.77069694 219.34837773 122.65144304 218.34062984 126.1325531 214.71075439 C129.48703121 210.89064051 130.89045549 208.06418572 130.87498474 203.03619385 C130.87490921 202.21556961 130.87483368 201.39494537 130.87475586 200.54945374 C130.86959457 199.66811264 130.86443329 198.78677155 130.8591156 197.87872314 C130.85770065 196.97293015 130.85628571 196.06713715 130.85482788 195.13389587 C130.84922936 192.24021099 130.83667716 189.34660341 130.82395935 186.45294189 C130.81894416 184.49135447 130.81438128 182.52976583 130.81028748 180.56817627 C130.79926042 175.75890168 130.78199682 170.9496849 130.76145935 166.14044189 C131.99710632 166.16138916 133.2327533 166.18233643 134.50584412 166.20391846 C139.11086845 166.27657642 143.71584257 166.32233529 148.3212738 166.36016846 C150.31061843 166.38022527 152.29990453 166.40747774 154.28904724 166.44219971 C157.15630066 166.4909796 160.02277146 166.51347016 162.8903656 166.53106689 C163.77293533 166.55171204 164.65550507 166.57235718 165.56481934 166.59362793 C171.49065605 166.59575841 174.91688926 165.61148109 179.76145935 162.14044189 C183.32962949 157.87598549 184.4215024 153.82295263 184.1481781 148.28106689 C183.30801201 143.63045057 180.59609464 140.89364935 177.19895935 137.82794189 C173.95684663 135.58340232 171.50690641 135.01507129 167.6572113 135.0269165 C166.83658707 135.02699203 166.01596283 135.02706757 165.17047119 135.02714539 C164.2891301 135.03230667 163.407789 135.03746796 162.4997406 135.04278564 C161.1410511 135.04490807 161.1410511 135.04490807 159.75491333 135.04707336 C156.86122844 135.05267188 153.96762086 135.06522409 151.07395935 135.07794189 C149.11237193 135.08295709 147.15078329 135.08751996 145.18919373 135.09161377 C140.37991914 135.10264082 135.57070235 135.11990443 130.76145935 135.14044189 C130.78240662 133.93508789 130.80335388 132.72973389 130.82493591 131.487854 C130.89760765 126.99464912 130.94335763 122.50149569 130.98118591 118.00787354 C131.00123963 116.06702931 131.0284898 114.12624504 131.06321716 112.18560791 C131.1120111 109.38784957 131.13449062 106.59089345 131.15208435 103.79278564 C131.17272949 102.93208969 131.19337463 102.07139374 131.21464539 101.18461609 C131.21680722 95.31484814 130.15009177 91.96317264 126.76145935 87.14044189 C122.13713235 82.95652699 119.26722996 81.76856455 113.14427185 81.86700439 C109.27398799 82.31113533 106.72154026 83.66650994 103.76145935 86.14044189 Z " fill="#000000" transform="translate(98.23854064941406,147.85955810546875)"/>
<path d="M0 0 C2.72130095 0.39143161 5.44333606 0.77764569 8.1653595 1.16401672 C13.92839701 1.984635 19.68964803 2.81687516 25.44973755 3.65792847 C34.47334611 4.97546803 43.49994082 6.27173811 52.52709961 7.56469727 C55.57660385 8.00170694 58.6260846 8.43888032 61.67555237 8.87614441 C62.43115116 8.98447706 63.18674994 9.0928097 63.96524566 9.20442516 C69.31719632 9.97209341 74.66863467 10.74327062 80.0198822 11.51582336 C99.09941908 14.26905054 118.18675599 16.95448254 137.28515625 19.57421875 C139.6341418 19.89735738 141.98311058 20.22061802 144.33206177 20.54400635 C157.44046414 22.34840664 157.44046414 22.34840664 170.5513916 24.13433838 C175.50681598 24.80576524 180.46085898 25.48660794 185.4140377 26.17439842 C187.19214997 26.41950097 188.97075024 26.66109705 190.74988747 26.8986454 C211.21632464 29.63380144 228.6683753 34.14590962 243.640625 49.3359375 C244.22585938 49.91085938 244.81109375 50.48578125 245.4140625 51.078125 C256.56185687 62.90497283 259.14042317 80.7075774 258.74219728 96.25316715 C258.40761367 103.11390555 257.27733035 109.92190091 256.30151367 116.71386719 C256.0494097 118.51910197 255.79814714 120.32445443 255.5476532 122.12991333 C254.87019407 126.99502183 254.18091636 131.85838749 253.4892633 136.72149563 C252.76329974 141.83970151 252.04799164 146.95939709 251.33137512 152.07891846 C250.12629151 160.67721598 248.91413945 169.27449184 247.69702148 177.87109375 C246.14181631 188.85579992 244.59750886 199.8420077 243.05695629 210.82877731 C241.72443233 220.3318778 240.38769199 229.83438445 239.04986405 239.33673954 C238.76476159 241.36216641 238.47979394 243.38761226 238.19496322 245.41307735 C237.38149456 251.1975851 236.56573964 256.9817609 235.74638557 262.76543808 C235.50015511 264.50579266 235.25465496 266.24625078 235.01000214 267.98682785 C233.78505343 276.69737772 232.51072223 285.39899013 231.11079407 294.08331299 C230.94023382 295.17489594 230.94023382 295.17489594 230.7662279 296.28853106 C228.18704487 311.94028323 219.9645844 326.63415377 207.703125 336.7734375 C204.77340801 338.87250676 203.54178956 339.35051978 199.828125 339.8984375 C196.640625 339.3359375 196.640625 339.3359375 194.965065 338.29631424 C192.8877128 335.2215106 193.22986398 331.99223214 193.26208496 328.40740967 C193.25755483 327.5905523 193.2530247 326.77369494 193.2483573 325.93208432 C193.23669608 323.18470581 193.24639562 320.43781071 193.25585938 317.69042969 C193.25175564 315.72419927 193.24629594 313.75797127 193.23957825 311.79174805 C193.22783136 307.55034308 193.22537697 303.30906832 193.22993469 299.06764984 C193.2367374 292.35063531 193.22088491 285.63379218 193.20153809 278.91680908 C193.16362716 264.6398612 193.15089247 250.36292798 193.140625 236.0859375 C193.12954659 220.71388438 193.11403987 205.3419102 193.06991243 189.96991086 C193.05163132 183.30461724 193.04763775 176.63951906 193.05484772 169.97420645 C193.05637948 165.80635165 193.04552237 161.63859274 193.03146935 157.47076416 C193.02749683 155.5516725 193.02853957 153.63256215 193.03524208 151.71347809 C193.11550275 126.79859961 187.79276189 104.33958647 170.03125 85.671875 C146.64963333 62.82513191 119.99821178 61.13181233 88.9074707 61.27001953 C86.8625144 61.27522393 84.81755678 61.27992978 82.77259827 61.28417969 C78.40044752 61.29405156 74.02831924 61.3068732 69.65618324 61.32190323 C62.74387579 61.34511011 55.83157113 61.35831016 48.91923523 61.36959839 C29.27465088 61.40292181 9.63011048 61.44487799 -10.0144043 61.50732422 C-20.8876708 61.54180443 -31.76090607 61.56563734 -42.63422137 61.57753265 C-49.50833987 61.58563726 -56.38225298 61.60689462 -63.2563051 61.63773751 C-67.52082914 61.65370759 -71.78529365 61.65715751 -76.04984474 61.65696716 C-78.03002374 61.65939468 -80.01020401 61.66699849 -81.99034119 61.68009567 C-84.68802567 61.69719978 -87.38509187 61.69592241 -90.08280945 61.68997192 C-90.87024353 61.69939257 -91.65767762 61.70881321 -92.46897334 61.71851933 C-95.70695012 61.69453895 -97.98625469 61.54300548 -100.84565449 59.95614433 C-102.92326618 57.73237803 -102.86325414 56.41205065 -102.796875 53.3984375 C-102.06585077 36.49627129 -94.38864911 21.98009361 -82.359375 10.3359375 C-81.43125 9.4284375 -80.503125 8.5209375 -79.546875 7.5859375 C-55.66185954 -9.27407341 -27.16779531 -4.01751547 0 0 Z " fill="#000000" transform="translate(222.359375,56.6640625)"/>
</svg>
