<?xml version="1.0" encoding="UTF-8"?>
<svg version="1.1" xmlns="http://www.w3.org/2000/svg" width="512" height="512">
<path d="M0 0 C1.01823853 0.00215515 2.03647705 0.0043103 3.08557129 0.00653076 C17.70747424 0.05622604 32.00633932 0.36188758 46.375 3.3125 C47.89383789 3.61051514 47.89383789 3.61051514 49.44335938 3.91455078 C97.33223881 13.49089201 141.79848903 35.78506667 176.87475586 69.90942383 C178.93859956 71.83959628 181.16756034 73.55032168 183.375 75.3125 C184.47309154 76.46716769 185.5374861 77.65499631 186.5625 78.875 C188.5262211 81.18501171 190.50144722 83.44563755 192.58984375 85.64453125 C227.92568829 122.92756982 248.89418418 173.81890493 255.375 224.3125 C255.46232895 224.97970566 255.5496579 225.64691132 255.63963318 226.33433533 C256.33587491 232.05070476 256.54956164 237.68992632 256.578125 243.4453125 C256.58518463 244.39166061 256.59224426 245.33800873 256.59951782 246.31303406 C256.82741099 285.82902112 256.82741099 285.82902112 253.375 302.3125 C253.07698486 303.77478027 253.07698486 303.77478027 252.77294922 305.26660156 C242.92075995 352.36523222 221.93479251 395.46985483 188.8828125 430.59375 C187.10997467 432.51570503 185.43556591 434.42927239 183.78515625 436.44921875 C181.83630074 438.76447173 179.99189028 440.69051185 177.6875 442.625 C174.67818744 445.18207821 171.76508138 447.80906708 168.875 450.5 C135.61747051 480.36597016 93.50517529 499.70708716 49.9375 508.625 C49.21860596 508.77235596 48.49971191 508.91971191 47.7590332 509.0715332 C33.08339502 511.86090125 18.55831162 512.66142619 3.64770508 512.62817383 C0.70811513 512.6250221 -2.2304558 512.64854926 -5.16992188 512.67382812 C-18.54306192 512.71848737 -31.43916711 511.51301542 -44.625 509.3125 C-46.33055054 509.03031616 -46.33055054 509.03031616 -48.07055664 508.74243164 C-50.6662622 508.27617402 -53.23774939 507.7574418 -55.8125 507.1875 C-57.20142456 506.88054199 -57.20142456 506.88054199 -58.6184082 506.56738281 C-101.81787364 496.52249509 -141.64439095 475.17908436 -173.90625 444.8203125 C-175.82943486 443.04634026 -177.74453578 441.37049361 -179.765625 439.71875 C-182.0600781 437.78789876 -183.96239466 435.97256007 -185.875 433.6875 C-187.81625892 431.39867944 -189.76872424 429.16115787 -191.8359375 426.984375 C-204.46195998 413.66371697 -214.52264839 398.19305353 -223.625 382.3125 C-224.26864502 381.19004883 -224.26864502 381.19004883 -224.92529297 380.04492188 C-237.62173715 357.60380054 -246.00227501 333.28619762 -251.375 308.125 C-251.57383789 307.20017822 -251.77267578 306.27535645 -251.97753906 305.32250977 C-255.26941382 289.1158142 -256.00030274 273.18212039 -255.9375 256.6875 C-255.93534485 255.66926147 -255.9331897 254.65102295 -255.93096924 253.60192871 C-255.88127396 238.98002576 -255.57561242 224.68116068 -252.625 210.3125 C-252.42632324 209.29994141 -252.22764648 208.28738281 -252.02294922 207.24414062 C-242.44660799 159.35526119 -220.15243333 114.88901097 -186.02807617 79.81274414 C-184.09790372 77.74890044 -182.38717832 75.51993966 -180.625 73.3125 C-179.47033231 72.21440846 -178.28250369 71.1500139 -177.0625 70.125 C-174.75248829 68.1612789 -172.49186245 66.18605278 -170.29296875 64.09765625 C-137.84433247 33.34372602 -94.77023809 13.81543336 -51.4375 4.5625 C-50.51267822 4.36366211 -49.58785645 4.16482422 -48.63500977 3.95996094 C-32.4283142 0.66808618 -16.49462039 -0.06280274 0 0 Z M-125.71875 198.6328125 C-132.88411209 208.70543216 -134.93821473 219.31733518 -134.85205078 231.41015625 C-134.85234283 232.49397079 -134.85263489 233.57778534 -134.85293579 234.69444275 C-134.85154935 238.2547117 -134.83602032 241.81476789 -134.8203125 245.375 C-134.81657994 247.85221238 -134.81373411 250.32942624 -134.81173706 252.80664062 C-134.80411979 259.31020216 -134.78448762 265.81367363 -134.7623291 272.31719971 C-134.7418296 278.96015368 -134.73272658 285.60311648 -134.72265625 292.24609375 C-134.70123997 305.268275 -134.66607331 318.2903659 -134.625 331.3125 C-125.055 331.3125 -115.485 331.3125 -105.625 331.3125 C-105.625 316.4625 -105.625 301.6125 -105.625 286.3125 C-95.395 286.3125 -85.165 286.3125 -74.625 286.3125 C-74.625 301.1625 -74.625 316.0125 -74.625 331.3125 C-65.055 331.3125 -55.485 331.3125 -45.625 331.3125 C-45.53444689 316.7863882 -45.46113833 302.26046545 -45.41775131 287.73413467 C-45.39719095 280.98818045 -45.36919671 274.24241502 -45.32324219 267.49658203 C-45.2796177 260.98023233 -45.25582762 254.46407821 -45.24549103 247.94759369 C-45.23812947 245.46783115 -45.2237544 242.9880787 -45.20207977 240.50839996 C-45.1728259 237.0213195 -45.16905327 233.53503599 -45.17089844 230.04785156 C-45.15651733 229.03436142 -45.14213623 228.02087128 -45.12731934 226.97666931 C-45.20102492 214.01076393 -49.92566024 203.5184061 -58.69140625 194.08984375 C-67.26524828 185.88410943 -78.11224385 181.5095263 -89.9375 181 C-104.21236924 181.44608966 -116.58299077 187.74272269 -125.71875 198.6328125 Z M-14.625 181.3125 C-14.625 230.8125 -14.625 280.3125 -14.625 331.3125 C10.125 331.3125 34.875 331.3125 60.375 331.3125 C60.375 321.7425 60.375 312.1725 60.375 302.3125 C45.525 302.3125 30.675 302.3125 15.375 302.3125 C15.375 262.3825 15.375 222.4525 15.375 181.3125 C5.475 181.3125 -4.425 181.3125 -14.625 181.3125 Z M91.375 181.3125 C91.375 230.8125 91.375 280.3125 91.375 331.3125 C115.795 331.3125 140.215 331.3125 165.375 331.3125 C165.375 321.7425 165.375 312.1725 165.375 302.3125 C150.525 302.3125 135.675 302.3125 120.375 302.3125 C120.375 262.3825 120.375 222.4525 120.375 181.3125 C110.805 181.3125 101.235 181.3125 91.375 181.3125 Z " fill="#000000" transform="translate(255.625,-0.3125)"/>
<path d="M0 0 C3.14659394 2.60680167 5.44517672 4.88092231 6.9296875 8.734375 C7.0980379 11.45332455 7.16263325 14.06541455 7.125 16.78125 C7.1221701 17.55245178 7.11934021 18.32365356 7.11642456 19.1182251 C7.10525763 21.57376832 7.08015979 24.0289426 7.0546875 26.484375 C7.04465318 28.15233847 7.03552811 29.82030768 7.02734375 31.48828125 C7.00703387 35.57056791 6.96787964 39.65206 6.9296875 43.734375 C-3.3003125 43.734375 -13.5303125 43.734375 -24.0703125 43.734375 C-24.13938599 39.00156165 -24.19905534 34.27051444 -24.23510742 29.53759766 C-24.25014426 27.92946428 -24.27057922 26.32137156 -24.29663086 24.71337891 C-24.33324072 22.39475436 -24.35008972 20.07667451 -24.36328125 17.7578125 C-24.37876511 17.04507172 -24.39424896 16.33233093 -24.41020203 15.59799194 C-24.41199781 10.20687503 -23.22346574 6.15164837 -19.60546875 2.08984375 C-13.74067566 -2.56154387 -6.75560469 -4.12984136 0 0 Z " fill="#000000" transform="translate(174.0703125,212.265625)"/>
</svg>
