<?xml version="1.0" encoding="UTF-8"?>
<svg version="1.1" xmlns="http://www.w3.org/2000/svg" width="512" height="512">
<path d="M0 0 C21.77730221 18.85417439 26.63431361 44.39401627 28.63183594 71.90258789 C29.69680105 86.81610791 29.85480391 101.67552034 29.828125 116.62109375 C29.82857501 119.35897462 29.83142394 122.0968524 29.83392334 124.83473206 C29.83751848 130.52468861 29.8328839 136.21459253 29.82324219 141.90454102 C29.8123717 148.3927125 29.81589136 154.88075803 29.826895 161.36892647 C29.83610381 167.03530082 29.83718812 172.70163828 29.83201766 178.36801773 C29.82897035 181.71030316 29.82911909 185.05248503 29.83509064 188.39477348 C29.95108941 271.51836492 29.95108941 271.51836492 6.5 296.75 C-7.24440137 309.7931564 -24.92923416 317.78507523 -43.9765625 317.36328125 C-77.54046642 315.05244814 -108.76788238 292.55517481 -135.99316406 274.63330078 C-142.54237856 270.32949964 -149.15293344 266.15726418 -155.88916016 262.15209961 C-162.56131832 258.15263833 -168.98943804 253.78722012 -175.44805908 249.45578003 C-178.01102307 247.74135802 -180.58195301 246.0391741 -183.15414429 244.33863831 C-185.68031004 242.66846614 -188.20379586 240.99426599 -190.72729492 239.32006836 C-191.99698879 238.47866953 -193.2675036 237.63850828 -194.53881836 236.79956055 C-251.23643772 199.37030104 -251.23643772 199.37030104 -258.11328125 168.046875 C-261.55614591 148.65441284 -259.4641996 128.73871402 -248.6875 112 C-244.9113819 106.59990958 -240.54824669 101.82087864 -235.9375 97.125 C-235.35258789 96.52155762 -234.76767578 95.91811523 -234.16503906 95.29638672 C-221.94313706 83.23604952 -207.22064298 73.71982637 -192.9375 64.3125 C-191.35577735 63.26475688 -189.77423708 62.21673838 -188.19287109 61.16845703 C-176.29380601 53.2938409 -164.31718557 45.54617639 -152.26074219 37.91455078 C-149.42203676 36.11519841 -146.5891396 34.30703047 -143.7578125 32.49609375 C-138.32720111 29.02398593 -132.88466546 25.57106366 -127.4375 22.125 C-126.56673828 21.57215332 -125.69597656 21.01930664 -124.79882812 20.44970703 C-87.12531467 -3.42185568 -41.68251045 -31.90912679 0 0 Z " fill="#101010" transform="translate(325.4375,104.875)"/>
<path d="M0 0 C5.57590664 3.30852552 8.7654968 7.8739926 10.94575512 13.94093347 C12.18952963 18.84965671 11.97625271 23.85220329 11.95018005 28.88668823 C11.95556559 30.136035 11.96095113 31.38538176 11.96649987 32.67258751 C11.98091243 36.12416371 11.976723 39.57550028 11.96933305 43.02708936 C11.96459322 46.75589548 11.97711845 50.48465036 11.98735046 54.21343994 C12.00452813 61.51230104 12.00538059 68.81107601 12.00013756 76.10995208 C11.99609254 82.04408586 11.99754336 87.97819424 12.00288582 93.91232681 C12.00363424 94.7576162 12.00438266 95.60290559 12.00515376 96.47380982 C12.00668528 98.19114224 12.00822363 99.90847465 12.00976873 101.62580706 C12.02349015 117.72320845 12.0180587 133.82056122 12.00658352 149.91796149 C11.99665251 164.63502636 12.00959014 179.35196548 12.03351771 194.06901096 C12.0579181 209.19115154 12.06751421 224.31323358 12.06086498 239.43539345 C12.05737472 247.92105588 12.05959201 256.40662162 12.07711601 264.89226913 C12.09184979 272.11625138 12.09245817 279.34006886 12.0750451 286.56404792 C12.06654215 290.24738023 12.06436795 293.93041835 12.07969666 297.6137352 C12.09613169 301.61250923 12.08137519 305.61057578 12.06370544 309.60934448 C12.07811295 311.34341169 12.07811295 311.34341169 12.09281152 313.11251056 C12.02305019 320.79566846 11.15567138 328.38693522 5.81250471 334.31732166 C-0.04248438 339.72186344 -5.59183822 340.84156092 -13.4296875 340.6875 C-19.40502727 340.06668548 -23.01343901 337.76741519 -27.25 333.625 C-32.50500408 325.81756537 -32.87270166 319.03946919 -32.82518005 309.86331177 C-32.83056559 308.613965 -32.83595113 307.36461824 -32.84149987 306.07741249 C-32.85591243 302.62583629 -32.851723 299.17449972 -32.84433305 295.72291064 C-32.83959322 291.99410452 -32.85211845 288.26534964 -32.86235046 284.53656006 C-32.87952813 277.23769896 -32.88038059 269.93892399 -32.87513756 262.64004792 C-32.87109254 256.70591414 -32.87254336 250.77180576 -32.87788582 244.83767319 C-32.87863424 243.9923838 -32.87938266 243.14709441 -32.88015376 242.27619018 C-32.88168528 240.55885776 -32.88322363 238.84152535 -32.88476873 237.12419294 C-32.89849015 221.02679155 -32.8930587 204.92943878 -32.88158352 188.83203851 C-32.87165251 174.11497364 -32.88459014 159.39803452 -32.90851771 144.68098904 C-32.9329181 129.55884846 -32.94251421 114.43676642 -32.93586498 99.31460655 C-32.93237472 90.82894412 -32.93459201 82.34337838 -32.95211601 73.85773087 C-32.96684979 66.63374862 -32.96745817 59.40993114 -32.9500451 52.18595208 C-32.94154215 48.50261977 -32.93936795 44.81958165 -32.95469666 41.1362648 C-32.97113169 37.13749077 -32.95637519 33.13942422 -32.93870544 29.14065552 C-32.94831045 27.98461071 -32.95791546 26.82856591 -32.96781152 25.63748944 C-32.89805019 17.95433154 -32.03067138 10.36306478 -26.68750471 4.43267834 C-19.42538926 -2.27073403 -9.16586955 -4.1821458 0 0 Z " fill="#111111" transform="translate(434.4375,86.625)"/>
</svg>
