<?xml version="1.0" encoding="UTF-8"?>
<svg version="1.1" xmlns="http://www.w3.org/2000/svg" width="512" height="512">
<path d="M0 0 C250.0887995 0 250.0887995 0 266.64453125 15.5546875 C276.33035119 25.60995 282.1741718 37.99034124 282.12025452 51.9598999 C282.12111053 52.76583084 282.12196655 53.57176178 282.12284851 54.40211487 C282.12450514 57.11412763 282.1189777 59.8260788 282.11352539 62.53808594 C282.1132191 64.51099775 282.11335246 66.48390968 282.11389065 68.45682144 C282.11411665 73.74607507 282.10831558 79.03530614 282.10128021 84.32455444 C282.09559051 89.28554354 282.09531738 94.24652711 282.09460449 99.20751953 C282.08935458 113.72168268 282.07539346 128.23584163 282.0625 142.75 C282.041875 175.1725 282.02125 207.595 282 241 C216.33 241 150.66 241 83 241 C86.53944445 236.87064814 89.82758075 233.05321121 93.671875 229.30078125 C94.50074219 228.48416016 95.32960938 227.66753906 96.18359375 226.82617188 C97.90836501 225.13684112 99.63495792 223.4493684 101.36328125 221.76367188 C102.18699219 220.95091797 103.01070313 220.13816406 103.859375 219.30078125 C104.60670898 218.57028564 105.35404297 217.83979004 106.12402344 217.0871582 C110.01735551 212.7555476 110.43745424 209.14956962 110.3203125 203.4765625 C109.84779666 199.82320834 108.43690834 197.70767593 106 195 C103.00529355 193.1522024 100.6263342 192.67953792 97.125 192.625 C96.30257812 192.59664062 95.48015625 192.56828125 94.6328125 192.5390625 C88.9033208 193.54214858 84.74708402 198.00142706 80.76074219 201.98046875 C80.27540009 202.46230621 79.79005798 202.94414368 79.29000854 203.44058228 C77.70393188 205.0179313 76.12519572 206.60239318 74.546875 208.1875 C73.43952111 209.2935051 72.3318706 210.3992133 71.22393799 211.50463867 C68.91100195 213.81463598 66.60169729 216.12818707 64.29492188 218.44433594 C61.34047149 221.41020686 58.37709631 224.36697214 55.41096115 227.32115173 C53.12538435 229.59949895 50.84459553 231.8825913 48.56522369 234.16714478 C47.47426313 235.2594374 46.38182071 236.35025209 45.28786469 237.43954468 C43.76090723 238.96141596 42.24051906 240.48956367 40.72167969 242.01953125 C39.85597351 242.88682861 38.99026733 243.75412598 38.09832764 244.64770508 C34.84348658 248.29648993 33.7008469 251.00562878 33.625 255.875 C33.59664063 256.69742187 33.56828125 257.51984375 33.5390625 258.3671875 C34.54214858 264.0966792 39.00142706 268.25291598 42.98046875 272.23925781 C43.46230621 272.72459991 43.94414368 273.20994202 44.44058228 273.70999146 C46.0179313 275.29606812 47.60239318 276.87480428 49.1875 278.453125 C50.2935051 279.56047889 51.3992133 280.6681294 52.50463867 281.77606201 C54.81463598 284.08899805 57.12818707 286.39830271 59.44433594 288.70507812 C62.41020686 291.65952851 65.36697214 294.62290369 68.32115173 297.58903885 C70.59949895 299.87461565 72.8825913 302.15540447 75.16714478 304.43477631 C76.2594374 305.52573687 77.35025209 306.61817929 78.43954468 307.71213531 C79.96141596 309.23909277 81.48956367 310.75948094 83.01953125 312.27832031 C83.88682861 313.14402649 84.75412598 314.00973267 85.64770508 314.90167236 C90.14985091 318.91774064 93.62442184 319.44212108 99.5234375 319.3203125 C103.17679166 318.84779666 105.29232407 317.43690834 108 315 C109.8477976 312.00529355 110.32046208 309.6263342 110.375 306.125 C110.40335937 305.30257813 110.43171875 304.48015625 110.4609375 303.6328125 C109.42456735 297.71320674 104.7454931 293.46907401 100.578125 289.41796875 C99.82085114 288.66849724 99.82085114 288.66849724 99.04827881 287.90388489 C97.45359815 286.32685598 95.85231664 284.75676674 94.25 283.1875 C92.63435474 281.59946235 91.02020481 280.00997275 89.40887451 278.41755676 C87.95844647 276.98495659 86.5032625 275.55717632 85.04785156 274.12963867 C83 272 83 272 83 271 C148.67 271 214.34 271 282 271 C282.0825 303.2575 282.165 335.515 282.25 368.75 C282.28641602 378.92553711 282.32283203 389.10107422 282.36035156 399.58496094 C282.37841797 412.03564453 282.37841797 412.03564453 282.3817749 417.86920166 C282.38549302 421.93293032 282.40044892 425.99644877 282.42230225 430.06011963 C282.44985596 435.25304185 282.45794307 440.44566092 282.4522891 445.63864946 C282.45347038 447.5385497 282.46133279 449.43846117 282.47686052 451.33829832 C282.61276528 468.78512293 279.18256788 483.48071641 266.9375 496.75 C201.95263535 557.74262041 89.12425247 512 0 512 C0 343.04 0 174.08 0 0 Z " fill="#000000" transform="translate(230,0)"/>
<path d="M0 0 C0 168.96 0 337.92 0 512 C-168.42762546 512 -168.42762546 512 -184.75 496.9375 C-197.3783959 483.48251818 -200.45717541 468.6418111 -200.38768005 450.78152466 C-200.39185692 449.03252759 -200.39733636 447.28353323 -200.40399987 445.53454387 C-200.41842693 440.74598309 -200.4142183 435.95759482 -200.40683305 431.16902471 C-200.40209691 425.99780881 -200.41461519 420.82662999 -200.42485046 415.65542603 C-200.44203505 405.53139079 -200.44287917 395.40741762 -200.43763756 385.28337158 C-200.43359398 377.05334763 -200.43504166 368.82334201 -200.44038582 360.59331894 C-200.44113424 359.42138535 -200.44188266 358.24945176 -200.44265376 357.04200502 C-200.44418526 354.66112114 -200.44572361 352.28023725 -200.44726873 349.89935337 C-200.46099256 327.57843347 -200.45555691 305.25754862 -200.44408352 282.93662952 C-200.43415138 262.52404663 -200.44709172 242.11155438 -200.47101771 221.69898547 C-200.49541027 200.7300914 -200.50501618 179.76123955 -200.49836498 158.79233158 C-200.49487311 147.02358735 -200.49710282 135.25491284 -200.51461601 123.48617935 C-200.52933991 113.46771022 -200.5299709 103.44935989 -200.5125451 93.43089308 C-200.50403434 88.32154024 -200.50188755 83.21239962 -200.51719666 78.10305786 C-200.53105122 73.42112009 -200.52627059 68.73957619 -200.50695742 64.05766116 C-200.50319948 62.36866063 -200.5061134 60.6796285 -200.51656907 58.99065615 C-200.61278957 42.25029403 -196.56789775 27.85320054 -184.9375 15.25 C-140.6307437 -26.33483953 -22.07256232 0 0 0 Z M-152 66 C-154.72076045 70.46777506 -154.65094515 74.91298421 -154 80 C-151.8065619 84.46811466 -149.51294863 86.90863356 -145 89 C-140.74674347 90.10634376 -136.56560033 90.14801517 -132.19970703 90.14526367 C-131.4299353 90.14862228 -130.66016357 90.1519809 -129.86706543 90.15544128 C-127.33063122 90.16491466 -124.79426328 90.16689256 -122.2578125 90.16796875 C-120.48810804 90.17118378 -118.71840385 90.17454803 -116.94869995 90.17805481 C-113.24167261 90.18403699 -109.53466855 90.18589564 -105.82763672 90.18530273 C-101.08768704 90.18520115 -96.34788727 90.19885368 -91.6079731 90.21607494 C-87.95331136 90.22721686 -84.29868562 90.22922127 -80.64400864 90.22869301 C-78.89698647 90.2298698 -77.14996328 90.23427466 -75.40295792 90.24202538 C-72.95489373 90.25186985 -70.50715188 90.24892978 -68.05908203 90.24291992 C-67.3440451 90.24853943 -66.62900818 90.25415894 -65.89230347 90.25994873 C-59.85262569 90.22244723 -54.82926495 89.58536296 -50.1875 85.5625 C-46.24921137 80.94907617 -45.5545412 78.40981587 -45.68359375 72.5078125 C-46.15042017 68.80778087 -47.5256358 66.74186303 -50 64 C-55.52455609 59.89199675 -61.12587521 59.85052994 -67.80029297 59.85473633 C-68.5700647 59.85137772 -69.33983643 59.8480191 -70.13293457 59.84455872 C-72.66936878 59.83508534 -75.20573672 59.83310744 -77.7421875 59.83203125 C-79.51189196 59.82881622 -81.28159615 59.82545197 -83.05130005 59.82194519 C-86.75832739 59.81596301 -90.46533145 59.81410436 -94.17236328 59.81469727 C-98.91231296 59.81479885 -103.65211273 59.80114632 -108.3920269 59.78392506 C-112.04668864 59.77278314 -115.70131438 59.77077873 -119.35599136 59.77130699 C-121.10301353 59.7701302 -122.85003672 59.76572534 -124.59704208 59.75797462 C-127.04510627 59.74813015 -129.49284812 59.75107022 -131.94091797 59.75708008 C-132.6559549 59.75146057 -133.37099182 59.74584106 -134.10769653 59.74005127 C-141.16370979 59.78386339 -146.85656972 61.00352487 -152 66 Z M-152 126 C-154.72076045 130.46777506 -154.65094515 134.91298421 -154 140 C-151.8065619 144.46811466 -149.51294863 146.90863356 -145 149 C-140.74674347 150.10634376 -136.56560033 150.14801517 -132.19970703 150.14526367 C-131.4299353 150.14862228 -130.66016357 150.1519809 -129.86706543 150.15544128 C-127.33063122 150.16491466 -124.79426328 150.16689256 -122.2578125 150.16796875 C-120.48810804 150.17118378 -118.71840385 150.17454803 -116.94869995 150.17805481 C-113.24167261 150.18403699 -109.53466855 150.18589564 -105.82763672 150.18530273 C-101.08768704 150.18520115 -96.34788727 150.19885368 -91.6079731 150.21607494 C-87.95331136 150.22721686 -84.29868562 150.22922127 -80.64400864 150.22869301 C-78.89698647 150.2298698 -77.14996328 150.23427466 -75.40295792 150.24202538 C-72.95489373 150.25186985 -70.50715188 150.24892978 -68.05908203 150.24291992 C-67.3440451 150.24853943 -66.62900818 150.25415894 -65.89230347 150.25994873 C-59.85262569 150.22244723 -54.82926495 149.58536296 -50.1875 145.5625 C-46.24921137 140.94907617 -45.5545412 138.40981587 -45.68359375 132.5078125 C-46.15042017 128.80778087 -47.5256358 126.74186303 -50 124 C-55.52455609 119.89199675 -61.12587521 119.85052994 -67.80029297 119.85473633 C-68.5700647 119.85137772 -69.33983643 119.8480191 -70.13293457 119.84455872 C-72.66936878 119.83508534 -75.20573672 119.83310744 -77.7421875 119.83203125 C-79.51189196 119.82881622 -81.28159615 119.82545197 -83.05130005 119.82194519 C-86.75832739 119.81596301 -90.46533145 119.81410436 -94.17236328 119.81469727 C-98.91231296 119.81479885 -103.65211273 119.80114632 -108.3920269 119.78392506 C-112.04668864 119.77278314 -115.70131438 119.77077873 -119.35599136 119.77130699 C-121.10301353 119.7701302 -122.85003672 119.76572534 -124.59704208 119.75797462 C-127.04510627 119.74813015 -129.49284812 119.75107022 -131.94091797 119.75708008 C-132.6559549 119.75146057 -133.37099182 119.74584106 -134.10769653 119.74005127 C-141.16370979 119.78386339 -146.85656972 121.00352487 -152 126 Z M-152 186 C-154.72076045 190.46777506 -154.65094515 194.91298421 -154 200 C-151.8065619 204.46811466 -149.51294863 206.90863356 -145 209 C-140.74674347 210.10634376 -136.56560033 210.14801517 -132.19970703 210.14526367 C-131.4299353 210.14862228 -130.66016357 210.1519809 -129.86706543 210.15544128 C-127.33063122 210.16491466 -124.79426328 210.16689256 -122.2578125 210.16796875 C-120.48810804 210.17118378 -118.71840385 210.17454803 -116.94869995 210.17805481 C-113.24167261 210.18403699 -109.53466855 210.18589564 -105.82763672 210.18530273 C-101.08768704 210.18520115 -96.34788727 210.19885368 -91.6079731 210.21607494 C-87.95331136 210.22721686 -84.29868562 210.22922127 -80.64400864 210.22869301 C-78.89698647 210.2298698 -77.14996328 210.23427466 -75.40295792 210.24202538 C-72.95489373 210.25186985 -70.50715188 210.24892978 -68.05908203 210.24291992 C-67.3440451 210.24853943 -66.62900818 210.25415894 -65.89230347 210.25994873 C-59.85262569 210.22244723 -54.82926495 209.58536296 -50.1875 205.5625 C-46.24921137 200.94907617 -45.5545412 198.40981587 -45.68359375 192.5078125 C-46.15042017 188.80778087 -47.5256358 186.74186303 -50 184 C-55.52455609 179.89199675 -61.12587521 179.85052994 -67.80029297 179.85473633 C-68.5700647 179.85137772 -69.33983643 179.8480191 -70.13293457 179.84455872 C-72.66936878 179.83508534 -75.20573672 179.83310744 -77.7421875 179.83203125 C-79.51189196 179.82881622 -81.28159615 179.82545197 -83.05130005 179.82194519 C-86.75832739 179.81596301 -90.46533145 179.81410436 -94.17236328 179.81469727 C-98.91231296 179.81479885 -103.65211273 179.80114632 -108.3920269 179.78392506 C-112.04668864 179.77278314 -115.70131438 179.77077873 -119.35599136 179.77130699 C-121.10301353 179.7701302 -122.85003672 179.76572534 -124.59704208 179.75797462 C-127.04510627 179.74813015 -129.49284812 179.75107022 -131.94091797 179.75708008 C-132.6559549 179.75146057 -133.37099182 179.74584106 -134.10769653 179.74005127 C-141.16370979 179.78386339 -146.85656972 181.00352487 -152 186 Z " fill="#000000" transform="translate(200,0)"/>
</svg>
