<?xml version="1.0" encoding="UTF-8"?>
<svg version="1.1" xmlns="http://www.w3.org/2000/svg" width="512" height="512">
<path d="M0 0 C2.06504438 -0.00271648 4.13008779 -0.00628107 6.19512939 -0.01062012 C11.75708687 -0.0196683 17.3189694 -0.01623137 22.88092804 -0.00986195 C28.72970263 -0.00476246 34.57847123 -0.00950429 40.42724609 -0.01263428 C50.24512878 -0.01626249 60.06298128 -0.01150498 69.88085938 -0.00195312 C81.19620114 0.00892919 92.51147081 0.0054028 103.82681084 -0.00560594 C113.58017527 -0.01471154 123.33351813 -0.01594813 133.08688545 -0.0107286 C138.89539902 -0.00762685 144.70387881 -0.0071498 150.51239014 -0.01380157 C155.97576994 -0.01962223 161.4390577 -0.01549265 166.90242767 -0.00401306 C168.8952901 -0.00139154 170.88816041 -0.00208806 172.88101959 -0.00653839 C195.59786594 -0.05255157 217.28623425 0.92930591 234.6640625 17.38378906 C246.29659496 29.50992262 250.87424161 42.6716606 250.9765625 59.25878906 C250.77667979 61.90715068 250.53884557 64.50906294 250.21875 67.14160156 C250.13034348 67.87545578 250.04193695 68.60931 249.95085144 69.36540222 C248.9006234 77.54668467 247.14346703 85.54088649 245.2890625 93.57128906 C244.93145758 95.14349457 244.57412167 96.71576128 244.21704102 98.28808594 C243.15351905 102.94891711 242.06716639 107.60423369 240.9765625 112.25878906 C240.7378241 113.28428864 240.7378241 113.28428864 240.4942627 114.33050537 C231.5288399 152.83681863 231.5288399 152.83681863 223.9765625 165.25878906 C224.67289795 165.25212723 225.3692334 165.24546539 226.08666992 165.23860168 C232.67696658 165.17827299 239.26718519 165.13270479 245.85769653 165.10335255 C249.24525822 165.08775446 252.63259008 165.066625 256.02001953 165.0324707 C259.92226153 164.99595431 263.82418041 164.97903157 267.7265625 164.96582031 C268.93207764 164.95033646 270.13759277 164.9348526 271.37963867 164.91889954 C279.01306455 164.91738304 285.27480161 165.27975292 291.4375 170.23925781 C296.98605581 176.63708236 299.38358518 181.32330513 298.8515625 189.82128906 C297.7694464 196.97801143 294.32912392 201.34721342 288.953125 205.99707031 C284.26359288 208.99058588 279.60705322 209.50955276 274.14419937 209.51605797 C273.47842979 209.51956404 272.8126602 209.52307012 272.12671578 209.52668244 C269.89789025 209.53597942 267.669327 209.5310776 265.44049072 209.5262146 C263.82551541 209.52995172 262.21054191 209.5345535 260.59557128 209.53994524 C256.15899583 209.55218304 251.72249575 209.55191386 247.28590727 209.54955649 C242.50048885 209.54914852 237.71509465 209.56018561 232.9296875 209.56967163 C223.55442955 209.58628705 214.17919675 209.59178143 204.80392531 209.59289639 C197.18305909 209.59384664 189.56220118 209.59795577 181.94133759 209.60429764 C160.33512776 209.62191178 138.72893781 209.63113628 117.12272075 209.62963669 C115.95783814 209.62955678 114.79295552 209.62947687 113.59277344 209.62939453 C112.42646856 209.62931277 111.26016368 209.62923101 110.05851623 209.62914677 C91.15749573 209.62833389 72.25655492 209.64747151 53.35555747 209.67567126 C33.94848058 209.7043976 14.54144256 209.71821169 -4.86565614 209.71648371 C-15.76138057 209.71581971 -26.65702146 209.72131653 -37.55272675 209.74283981 C-46.82987528 209.76104832 -56.10690241 209.76540165 -65.38406107 209.75182097 C-70.11644932 209.74528959 -74.84860465 209.74518029 -79.58097076 209.76252747 C-83.91632134 209.77825571 -88.25125424 209.77539712 -92.58659461 209.7579592 C-94.1518606 209.75488875 -95.71715774 209.75852342 -97.28238699 209.76967935 C-115.79582896 209.89285314 -115.79582896 209.89285314 -122.95051169 203.55051553 C-128.13589588 198.05590349 -129.51486873 192.27818492 -129.3359375 184.85253906 C-128.62498369 178.95162242 -126.35079298 174.64647888 -122.2734375 170.38378906 C-114.29284796 165.16571129 -107.31622767 164.79740642 -97.9921875 164.74707031 C-96.76052856 164.72911911 -95.52886963 164.71116791 -94.2598877 164.69267273 C-90.34777186 164.63873446 -86.43577692 164.6047258 -82.5234375 164.57128906 C-79.86193357 164.53972013 -77.2005152 164.50361076 -74.5390625 164.46777344 C-68.03396259 164.38301719 -61.52884672 164.31459762 -55.0234375 164.25878906 C-55.50536308 163.35802139 -55.50536308 163.35802139 -55.99702454 162.4390564 C-59.15568994 156.36021795 -61.51274116 150.36311977 -63.44140625 143.79785156 C-63.73548874 142.81289703 -64.02957123 141.8279425 -64.33256531 140.81314087 C-67.49904551 129.98392599 -70.07874595 119.02232127 -72.56860352 108.02099609 C-73.34376999 104.59921448 -74.13290486 101.18086567 -74.92382812 97.76269531 C-81.43418406 69.43640737 -81.43418406 69.43640737 -81.3359375 57.19628906 C-81.32747803 56.05051392 -81.32747803 56.05051392 -81.31884766 54.8815918 C-80.98621803 39.24635254 -74.81875834 27.0489528 -63.94140625 15.99316406 C-46.42888004 -0.41750306 -22.55840116 -0.05037601 0 0 Z M50.6640625 71.88378906 C47.7583753 75.97327475 47.47846745 79.32395847 47.9765625 84.25878906 C49.83424397 89.52221988 52.54447992 92.09301579 56.9765625 95.25878906 C59.91171481 96.22757267 62.63093475 96.3988135 65.70996094 96.43579102 C66.64483337 96.44862625 67.57970581 96.46146149 68.54290771 96.47468567 C69.54710754 96.4820726 70.55130737 96.48945953 71.5859375 96.49707031 C72.62671448 96.50514206 73.66749146 96.51321381 74.73980713 96.52153015 C76.94208113 96.53535234 79.14437638 96.54608282 81.34667969 96.55395508 C83.59283752 96.56547467 85.83896798 96.58592598 88.08496094 96.61547852 C91.33547519 96.65824844 94.58517643 96.67433784 97.8359375 96.68457031 C98.83204041 96.7020784 99.82814331 96.71958649 100.85443115 96.73762512 C107.04051636 96.71852415 111.85476516 95.89931875 116.9765625 92.25878906 C120.54447784 88.14196367 121.88264372 84.70607812 121.9765625 79.25878906 C120.74622831 73.05979758 118.11796649 69.79350431 112.9765625 66.25878906 C110.04859495 65.28279988 108.10234465 65.11588893 105.04956055 65.08178711 C104.04809494 65.06895187 103.04662933 65.05611664 102.01481628 65.04289246 C100.93355972 65.03550552 99.85230316 65.02811859 98.73828125 65.02050781 C97.62475784 65.01243607 96.51123444 65.00436432 95.3639679 64.99604797 C93.00608882 64.98221178 90.64818976 64.97148755 88.2902832 64.96362305 C84.68857816 64.94640625 81.08779002 64.90251407 77.48632812 64.85839844 C75.19531925 64.84827173 72.90430257 64.83975556 70.61328125 64.83300781 C69.00050545 64.80674568 69.00050545 64.80674568 67.35514832 64.779953 C59.55389216 64.80252952 55.91332338 65.92516861 50.6640625 71.88378906 Z " fill="#101010" transform="translate(183.0234375,260.7412109375)"/>
<path d="M0 0 C13.53971084 9.77465756 22.73476682 23.829536 25.60546875 40.35546875 C27.60683567 57.77477339 23.77456468 73.3295533 13.171875 87.359375 C1.77398279 100.85915988 -13.12228151 107.50095998 -30.43359375 109.49609375 C-45.90404137 110.05341422 -60.63524038 104.87452631 -72.328125 94.796875 C-84.63929661 83.1295523 -91.94854695 69.59180428 -92.48266602 52.50463867 C-92.69793527 34.41085935 -87.37374395 19.8349348 -74.77734375 6.6171875 C-54.34105885 -12.36992525 -23.42074272 -14.49855502 0 0 Z M-53.515625 32.484375 C-59.17672664 39.98974488 -60.23106206 46.78610516 -59.078125 56.109375 C-56.8720993 63.47300709 -52.51154476 68.95132991 -46.078125 73.109375 C-39.29105082 76.38025412 -32.92402767 77.07601884 -25.640625 74.984375 C-17.71685836 72.06864486 -12.8573101 67.73356316 -8.98828125 60.2578125 C-6.14351462 53.54269814 -6.20020623 46.82589088 -8.640625 39.984375 C-11.66679611 33.1462901 -16.77997956 27.84264869 -23.65234375 24.7734375 C-34.74163352 21.7377221 -45.66528632 23.98144093 -53.515625 32.484375 Z " fill="#101010" transform="translate(301.078125,56.890625)"/>
<path d="M0 0 C1.06031937 0.00273422 1.06031937 0.00273422 2.14205933 0.00552368 C12.4669652 0.05037964 22.26641766 0.44352153 32.25 3.3125 C33.47589844 3.6528125 34.70179688 3.993125 35.96484375 4.34375 C60.8850312 11.9561086 85.4025508 27.77145795 99.25 50.3125 C101.22756146 55.21192564 101.47582584 58.93496237 100.625 64.125 C98.67920706 68.63570181 96.67605285 71.32784446 92.625 74.125 C87.38808709 75.96761751 82.36709165 76.47091647 77.07421875 74.50390625 C71.40035971 71.31993487 67.98529821 66.50634323 64.25 61.3125 C53.2029158 46.51401013 32.2870795 37.16033303 14.40625 34.5625 C-9.7651509 31.51250217 -34.84576765 35.7329485 -54.625 50.8125 C-56.01009059 51.96716886 -57.38555146 53.13351048 -58.75 54.3125 C-59.42417969 54.85519531 -60.09835938 55.39789063 -60.79296875 55.95703125 C-65.51608197 59.85793908 -69.21314186 64.18494495 -72.890625 69.078125 C-75.96012018 72.76667803 -78.90137144 75.03035012 -83.80078125 75.515625 C-88.89891633 75.62128583 -92.40683383 75.27374966 -96.75 72.3125 C-100.76163633 68.3334786 -102.87330138 64.75837432 -103.0625 59.0625 C-102.97032334 54.28467644 -101.58552595 51.10856997 -98.75 47.3125 C-98.14027344 46.49007812 -97.53054687 45.66765625 -96.90234375 44.8203125 C-77.64596488 20.14698494 -49.78900531 5.49041403 -19.05932617 0.68530273 C-12.71890667 -0.0289592 -6.3714373 -0.03408384 0 0 Z " fill="#101010" transform="translate(268.75,175.6875)"/>
</svg>
