<?xml version="1.0" encoding="UTF-8"?><svg id="Layer_51" xmlns="http://www.w3.org/2000/svg" viewBox="0 0 32 31.59"><path d="M28.08,25.58c-.34.48-.91.68-1.45.43-.62-.29-.85-1.1-.44-1.67.81-1.09,1.46-2.26,1.95-3.51,2.09-5.35.85-11.42-3.16-15.53-1.12-1.15-2.41-2.15-3.86-2.91-.41-.21-.68-.58-.67-1.05,0-.4.25-.74.54-.91.38-.22.77-.2,1.14-.01,2.3,1.18,4.43,2.99,5.96,5.07,2.15,2.93,3.31,6.49,3.3,10.14,0,1.71-.3,3.4-.82,5.02-.57,1.77-1.42,3.41-2.49,4.94Z"/><path d="M24.99,20.94c-.36.53-.98.71-1.52.43-.58-.3-.82-.96-.53-1.56.69-1.47,1.06-3.06.98-4.69-.17-3.77-2.47-7.04-5.73-8.81-.55-.3-.81-.9-.55-1.48.24-.54.9-.83,1.48-.58.5.22.94.52,1.4.83,1.54,1.04,2.87,2.37,3.87,3.95,1.21,1.92,1.87,4.15,1.89,6.42.01,1.92-.45,3.77-1.29,5.49Z"/><path d="M22.2,24.62c-.44.42-1.14.37-1.55-.03s-.47-1.1-.08-1.55c.15-.17.3-.32.47-.47.3-.26.73-.32,1.1-.19s.63.48.71.82c.09.42-.04.82-.34,1.1l-.32.31Z"/><circle cx="24.58" cy="27.65" r="1.12"/><path d="M15.61,31.26H3.8c-.94.01-1.78-.31-2.41-1-.56-.63-.85-1.42-.77-2.27.13-1.44.73-2.77,1.69-3.86,1.04-1.17,2.29-1.92,3.78-2.46-1-1.03-1.65-2.27-2-3.64-.7-2.77.22-5.81,2.91-7.1,2.15-1.03,4.77-.73,6.55.88,1.48,1.34,2.04,3.47,1.75,5.41-.24,1.66-.97,3.24-2.16,4.44,2.84.98,5.11,3.16,5.45,6.22.1.9-.17,1.75-.79,2.4-.57.59-1.32.97-2.18.97ZM11.18,20.59c.45-.33.8-.71,1.1-1.17.92-1.42,1.28-3.44.52-5.01-.91-1.88-3.35-2.47-5.13-1.37-1.08.67-1.63,1.85-1.66,3.1-.03,1.66.68,3.51,2.07,4.48.94.66,2.15.65,3.1-.03ZM15.67,29.19c.42-.06.71-.32.7-.73-.04-1.07-.46-2.07-1.16-2.89-1.21-1.42-3.13-2.17-4.97-2.3-1.38-.1-2.75.11-4.01.67-1.84.82-3.27,2.38-3.4,4.45-.03.43.27.79.72.79h12.12Z"/><path d="M18.61,21.06c-.49.45-1.23.33-1.62-.13-.43-.51-.33-1.17.13-1.64.98-1.02,1.56-2.34,1.57-3.77,0-1.13-.38-2.18-1-3.1-.33-.48-.72-.88-1.15-1.27s-.9-.65-1.37-.96c-.52-.34-.64-1.04-.33-1.54.33-.52.99-.68,1.55-.38.79.43,1.5.96,2.15,1.58.76.72,1.36,1.55,1.81,2.49,1.1,2.31.88,5.08-.51,7.22-.36.55-.75,1.04-1.23,1.48Z"/></svg>