<?xml version="1.0" encoding="UTF-8"?>
<svg version="1.1" xmlns="http://www.w3.org/2000/svg" width="512" height="512">
<path d="M0 0 C5.01779297 4.23555148 7.72998086 8.54503757 9 15 C9.28071133 18.40133916 9.28371527 21.78719879 9.2746582 25.19873047 C9.27976913 26.19966736 9.28488007 27.20060425 9.29014587 28.23187256 C9.30399867 31.52703907 9.30308827 34.8219954 9.30078125 38.1171875 C9.30467064 40.41732867 9.30900581 42.71746912 9.31376648 45.01760864 C9.3212195 49.83419118 9.32094411 54.65070041 9.31567383 59.46728516 C9.30988153 65.62622507 9.32680914 71.78486402 9.3500185 77.9437542 C9.3647819 82.69310243 9.36562396 87.44237864 9.36250877 92.19174576 C9.36302071 94.46184001 9.36823431 96.73193844 9.37832069 99.00201035 C9.39071764 102.18236345 9.38387349 105.36213599 9.37231445 108.54248047 C9.37995819 109.47160248 9.38760193 110.40072449 9.39547729 111.35800171 C9.34088871 118.18576753 8.4615533 124.7946295 4.203125 130.33984375 C3.55859375 130.86707031 2.9140625 131.39429688 2.25 131.9375 C1.61578125 132.48277344 0.9815625 133.02804687 0.328125 133.58984375 C-5.83028873 137.32002388 -12.20868893 137.29321564 -19.19873047 137.2746582 C-20.19966736 137.27976913 -21.20060425 137.28488007 -22.23187256 137.29014587 C-25.52703907 137.30399867 -28.8219954 137.30308827 -32.1171875 137.30078125 C-34.41732867 137.30467064 -36.71746912 137.30900581 -39.01760864 137.31376648 C-43.83419118 137.3212195 -48.65070041 137.32094411 -53.46728516 137.31567383 C-59.62622507 137.30988153 -65.78486402 137.32680914 -71.9437542 137.3500185 C-76.69310243 137.3647819 -81.44237864 137.36562396 -86.19174576 137.36250877 C-88.46184001 137.36302071 -90.73193844 137.36823431 -93.00201035 137.37832069 C-96.18236345 137.39071764 -99.36213599 137.38387349 -102.54248047 137.37231445 C-103.47160248 137.37995819 -104.40072449 137.38760193 -105.35800171 137.39547729 C-112.18576753 137.34088871 -118.7946295 136.4615533 -124.33984375 132.203125 C-129.21890463 126.2385029 -131.52940945 121.0272202 -131.23828125 113.10546875 C-130.40085073 105.70587779 -127.96940792 101.26028364 -122.328125 96.41015625 C-116.9333012 93.14248613 -111.21157338 92.7099835 -105.04516602 92.77294922 C-104.28336533 92.77265717 -103.52156464 92.77236511 -102.73667908 92.77206421 C-100.24230176 92.77344706 -97.74823078 92.78895845 -95.25390625 92.8046875 C-93.51513329 92.80842135 -91.77635822 92.81126657 -90.0375824 92.81326294 C-85.47883209 92.82087008 -80.92021083 92.84049328 -76.36151123 92.8626709 C-71.70261378 92.88319244 -67.04369532 92.89227811 -62.38476562 92.90234375 C-53.25645397 92.9237421 -44.12823775 92.95784254 -35 93 C-35.00999275 91.56419334 -35.00999275 91.56419334 -35.02018738 90.09938049 C-35.08116326 81.05179214 -35.12605147 72.00424582 -35.15543652 62.95649815 C-35.17105184 58.30562802 -35.19221412 53.6549246 -35.22631836 49.00415039 C-35.25905987 44.51078097 -35.27688406 40.01757128 -35.28463173 35.52409172 C-35.2901488 33.81498642 -35.30092197 32.10588927 -35.31719017 30.39685249 C-35.4984422 10.55558018 -35.4984422 10.55558018 -30.203125 3.66015625 C-21.29380701 -3.62766587 -10.419648 -5.60196129 0 0 Z " fill="#000000" transform="translate(461,333)"/>
<path d="M0 0 C5.17689001 4.36984632 7.41743703 8.41777406 9 15 C9.17012514 17.69004301 9.25446951 20.2696415 9.22705078 22.95483398 C9.22734283 23.71663467 9.22763489 24.47843536 9.22793579 25.26332092 C9.22655294 27.75769824 9.21104155 30.25176922 9.1953125 32.74609375 C9.19157865 34.48486671 9.18873343 36.22364178 9.18673706 37.9624176 C9.17912992 42.52116791 9.15950672 47.07978917 9.1373291 51.63848877 C9.11680756 56.29738622 9.10772189 60.95630468 9.09765625 65.61523438 C9.0762579 74.74354603 9.04215746 83.87176225 9 93 C10.43580666 92.99000725 10.43580666 92.99000725 11.90061951 92.97981262 C20.94820786 92.91883674 29.99575418 92.87394853 39.04350185 92.84456348 C43.69437198 92.82894816 48.3450754 92.80778588 52.99584961 92.77368164 C57.48921903 92.74094013 61.98242872 92.72311594 66.47590828 92.71536827 C68.18501358 92.7098512 69.89411073 92.69907803 71.60314751 92.68280983 C91.44441982 92.5015578 91.44441982 92.5015578 98.33984375 97.796875 C103.21890463 103.7614971 105.52940945 108.9727798 105.23828125 116.89453125 C104.40085073 124.29412221 101.96940792 128.73971636 96.328125 133.58984375 C90.16971127 137.32002388 83.79131107 137.29321564 76.80126953 137.2746582 C75.80033264 137.27976913 74.79939575 137.28488007 73.76812744 137.29014587 C70.47296093 137.30399867 67.1780046 137.30308827 63.8828125 137.30078125 C61.58267133 137.30467064 59.28253088 137.30900581 56.98239136 137.31376648 C52.16580882 137.3212195 47.34929959 137.32094411 42.53271484 137.31567383 C36.37377493 137.30988153 30.21513598 137.32680914 24.0562458 137.3500185 C19.30689757 137.3647819 14.55762136 137.36562396 9.80825424 137.36250877 C7.53815999 137.36302071 5.26806156 137.36823431 2.99798965 137.37832069 C-0.18236345 137.39071764 -3.36213599 137.38387349 -6.54248047 137.37231445 C-7.47160248 137.37995819 -8.40072449 137.38760193 -9.35800171 137.39547729 C-16.18576753 137.34088871 -22.7946295 136.4615533 -28.33984375 132.203125 C-28.86707031 131.55859375 -29.39429688 130.9140625 -29.9375 130.25 C-30.48277344 129.61578125 -31.02804688 128.9815625 -31.58984375 128.328125 C-35.32002388 122.16971127 -35.29321564 115.79131107 -35.2746582 108.80126953 C-35.27976913 107.80033264 -35.28488007 106.79939575 -35.29014587 105.76812744 C-35.30399867 102.47296093 -35.30308827 99.1780046 -35.30078125 95.8828125 C-35.30467064 93.58267133 -35.30900581 91.28253088 -35.31376648 88.98239136 C-35.3212195 84.16580882 -35.32094411 79.34929959 -35.31567383 74.53271484 C-35.30988153 68.37377493 -35.32680914 62.21513598 -35.3500185 56.0562458 C-35.3647819 51.30689757 -35.36562396 46.55762136 -35.36250877 41.80825424 C-35.36302071 39.53815999 -35.36823431 37.26806156 -35.37832069 34.99798965 C-35.39071764 31.81763655 -35.38387349 28.63786401 -35.37231445 25.45751953 C-35.37995819 24.52839752 -35.38760193 23.59927551 -35.39547729 22.64199829 C-35.34088871 15.81423247 -34.4615533 9.2053705 -30.203125 3.66015625 C-21.29380701 -3.62766587 -10.419648 -5.60196129 0 0 Z " fill="#000000" transform="translate(77,333)"/>
<path d="M0 0 C1.00093689 -0.00511093 2.00187378 -0.01022186 3.03314209 -0.01548767 C6.3283086 -0.02934047 9.62326493 -0.02843007 12.91845703 -0.02612305 C15.2185982 -0.03001243 17.51873865 -0.03434761 19.81887817 -0.03910828 C24.63546071 -0.0465613 29.45196994 -0.0462859 34.26855469 -0.04101562 C40.4274946 -0.03522333 46.58613355 -0.05215094 52.74502373 -0.0753603 C57.49437197 -0.0901237 62.24364817 -0.09096575 66.99301529 -0.08785057 C69.26310955 -0.0883625 71.53320797 -0.09357611 73.80327988 -0.10366249 C76.98363299 -0.11605943 80.16340552 -0.10921528 83.34375 -0.09765625 C84.27287201 -0.10529999 85.20199402 -0.11294373 86.15927124 -0.12081909 C92.98703706 -0.06623051 99.59589903 0.8131049 105.14111328 5.0715332 C105.66833984 5.71606445 106.19556641 6.3605957 106.73876953 7.0246582 C107.28404297 7.65887695 107.82931641 8.2930957 108.39111328 8.9465332 C112.12129341 15.10494693 112.09448517 21.48334714 112.07592773 28.47338867 C112.08103867 29.47432556 112.0861496 30.47526245 112.09141541 31.50653076 C112.1052682 34.80169727 112.1043578 38.0966536 112.10205078 41.3918457 C112.10594017 43.69198687 112.11027534 45.99212732 112.11503601 48.29226685 C112.12248903 53.10884939 112.12221364 57.92535862 112.11694336 62.74194336 C112.11115106 68.90088327 112.12807867 75.05952222 112.15128803 81.2184124 C112.16605143 85.96776064 112.16689349 90.71703684 112.16377831 95.46640396 C112.16429024 97.73649822 112.16950384 100.00659664 112.17959023 102.27666855 C112.19198717 105.45702166 112.18514302 108.63679419 112.17358398 111.81713867 C112.18122772 112.74626068 112.18887146 113.67538269 112.19674683 114.63265991 C112.14215824 121.46042573 111.26282284 128.06928771 107.00439453 133.61450195 C101.03977243 138.49356283 95.82848973 140.80406765 87.90673828 140.51293945 C80.50714732 139.67550894 76.06155317 137.24406612 71.21142578 131.6027832 C67.94375566 126.2079594 67.51125303 120.48623159 67.57421875 114.31982422 C67.5739267 113.55802353 67.57363464 112.79622284 67.57333374 112.01133728 C67.57471659 109.51695996 67.59022799 107.02288898 67.60595703 104.52856445 C67.60969089 102.7897915 67.6125361 101.05101642 67.61453247 99.3122406 C67.62213961 94.75349029 67.64176281 90.19486904 67.66394043 85.63616943 C67.68446197 80.97727198 67.69354764 76.31835352 67.70361328 71.65942383 C67.72501163 62.53111217 67.75911207 53.40289595 67.80126953 44.2746582 C66.84406509 44.28132004 65.88686066 44.28798187 64.90065002 44.29484558 C55.85306167 44.35582146 46.80551535 44.40070968 37.75776768 44.43009472 C33.10689756 44.44571004 28.45619413 44.46687232 23.80541992 44.50097656 C19.3120505 44.53371807 14.81884082 44.55154227 10.32536125 44.55928993 C8.61625596 44.564807 6.9071588 44.57558018 5.19812202 44.59184837 C-14.64315029 44.77310041 -14.64315029 44.77310041 -21.53857422 39.4777832 C-26.4176351 33.5131611 -28.72813992 28.3018784 -28.43701172 20.38012695 C-27.5995812 12.980536 -25.16813839 8.53494184 -19.52685547 3.68481445 C-13.36844174 -0.04536568 -6.99004154 -0.01855743 0 0 Z " fill="#000000" transform="translate(358.19873046875,41.725341796875)"/>
<path d="M0 0 C1.00093689 -0.00511093 2.00187378 -0.01022186 3.03314209 -0.01548767 C6.3283086 -0.02934047 9.62326493 -0.02843007 12.91845703 -0.02612305 C15.2185982 -0.03001243 17.51873865 -0.03434761 19.81887817 -0.03910828 C24.63546071 -0.0465613 29.45196994 -0.0462859 34.26855469 -0.04101562 C40.4274946 -0.03522333 46.58613355 -0.05215094 52.74502373 -0.0753603 C57.49437197 -0.0901237 62.24364817 -0.09096575 66.99301529 -0.08785057 C69.26310955 -0.0883625 71.53320797 -0.09357611 73.80327988 -0.10366249 C76.98363299 -0.11605943 80.16340552 -0.10921528 83.34375 -0.09765625 C84.27287201 -0.10529999 85.20199402 -0.11294373 86.15927124 -0.12081909 C92.98703706 -0.06623051 99.59589903 0.8131049 105.14111328 5.0715332 C110.02017416 11.03615531 112.33067898 16.247438 112.03955078 24.16918945 C111.20212026 31.56878041 108.77067745 36.01437456 103.12939453 40.86450195 C97.73457073 44.13217207 92.01284291 44.5646747 85.84643555 44.50170898 C85.08463486 44.50200104 84.32283417 44.50229309 83.53794861 44.50259399 C81.04357129 44.50121114 78.54950031 44.48569975 76.05517578 44.4699707 C74.31640282 44.46623685 72.57762775 44.46339164 70.83885193 44.46139526 C66.28010162 44.45378813 61.72148036 44.43416492 57.16278076 44.4119873 C52.50388331 44.39146577 47.84496485 44.38238009 43.18603516 44.37231445 C34.0577235 44.3509161 24.92950728 44.31681567 15.80126953 44.2746582 C15.80793137 45.23186264 15.8145932 46.18906708 15.82145691 47.17527771 C15.88243279 56.22286606 15.927321 65.27041238 15.95670605 74.31816006 C15.97232137 78.96903018 15.99348365 83.6197336 16.02758789 88.27050781 C16.0603294 92.76387723 16.07815359 97.25708692 16.08590126 101.75056648 C16.09141833 103.45967178 16.10219151 105.16876894 16.1184597 106.87780571 C16.29971174 126.71907803 16.29971174 126.71907803 11.00439453 133.61450195 C5.03977243 138.49356283 -0.17151027 140.80406765 -8.09326172 140.51293945 C-15.49285268 139.67550894 -19.93844683 137.24406612 -24.78857422 131.6027832 C-28.51875435 125.44436947 -28.4919461 119.06596927 -28.47338867 112.07592773 C-28.4784996 111.07499084 -28.48361053 110.07405396 -28.48887634 109.04278564 C-28.50272914 105.74761913 -28.50181874 102.4526628 -28.49951172 99.1574707 C-28.50340111 96.85732954 -28.50773628 94.55718909 -28.51249695 92.25704956 C-28.51994997 87.44046702 -28.51967458 82.62395779 -28.5144043 77.80737305 C-28.508612 71.64843314 -28.52553961 65.48979418 -28.54874897 59.33090401 C-28.56351237 54.58155577 -28.56435443 49.83227957 -28.56123924 45.08291245 C-28.56175117 42.81281819 -28.56696478 40.54271976 -28.57705116 38.27264786 C-28.5894481 35.09229475 -28.58260396 31.91252221 -28.57104492 28.73217773 C-28.57868866 27.80305573 -28.5863324 26.87393372 -28.59420776 25.91665649 C-28.53961918 19.08889068 -27.66028377 12.4800287 -23.40185547 6.93481445 C-22.75732422 6.40758789 -22.11279297 5.88036133 -21.44873047 5.3371582 C-20.81451172 4.79188477 -20.18029297 4.24661133 -19.52685547 3.68481445 C-13.36844174 -0.04536568 -6.99004154 -0.01855743 0 0 Z " fill="#000000" transform="translate(70.19873046875,41.725341796875)"/>
</svg>
