<svg version="1.1" xmlns="http://www.w3.org/2000/svg"  viewBox="0 0 512 512" width="512" height="512"><path d="M0 0 C9.06456954 3.96246173 12.89467264 13.58665209 16.58203125 22.1328125 C17.45587859 24.09556567 18.33086894 26.05781038 19.20703125 28.01953125 C19.99893299 29.80718755 20.79062562 31.59493651 21.58203125 33.3828125 C27.77392412 47.26991838 35.46454592 58.38248302 48.58203125 66.3828125 C49.67837891 67.08470703 49.67837891 67.08470703 50.796875 67.80078125 C57.17946178 71.44637124 64.1401896 72.92637632 71.27514648 74.4206543 C78.69666376 76.06947807 84.90724833 78.75817324 89.51953125 85.0078125 C93.32516378 91.23521119 93.32645147 97.23468653 92.58203125 104.3828125 C90.15430539 110.9648796 85.05805404 115.76066853 78.76953125 118.6953125 C71.29063022 120.3084088 64.33837084 119.21848523 57.01953125 117.3203125 C56.15255615 117.09770752 55.28558105 116.87510254 54.39233398 116.64575195 C39.42285762 112.61883512 25.93728949 105.73647364 13.58203125 96.3828125 C13.58056469 97.03381707 13.57909813 97.68482164 13.57758713 98.35555363 C13.54039731 114.25856795 13.48122293 130.16132984 13.39812851 146.06416416 C13.35846326 153.75493747 13.32600768 161.44561031 13.31103516 169.13647461 C13.29795325 175.84651018 13.27082401 182.55632352 13.22741818 189.26623386 C13.2049488 192.81308348 13.18911171 196.35966051 13.1901474 199.9065876 C13.18980499 217.20366544 13.13950135 232.99894218 4.89453125 248.6328125 C4.55204346 249.29555176 4.20955566 249.95829102 3.85668945 250.64111328 C-6.17436773 269.36908117 -23.20162304 282.2433194 -42.94140625 289.3515625 C-66.87350693 296.4505227 -90.07333754 293.99947228 -112.16796875 282.5078125 C-125.35611524 274.98808787 -135.97072822 264.61598605 -143.41796875 251.3828125 C-143.87945312 250.58230469 -144.3409375 249.78179687 -144.81640625 248.95703125 C-155.29899264 229.54836373 -155.48074295 207.73522289 -149.421875 186.96875 C-141.93899959 165.68527737 -126.53557906 149.93517463 -106.50439453 140.06591797 C-87.66238155 131.22907252 -65.38585733 129.32190719 -45.41796875 135.3828125 C-42.75557871 136.36374596 -40.12913491 137.42407611 -37.50390625 138.5 C-36.8183667 138.7777124 -36.13282715 139.0554248 -35.42651367 139.34155273 C-33.75574605 140.01889096 -32.08667622 140.70041459 -30.41796875 141.3828125 C-30.42165592 140.74081657 -30.42534309 140.09882065 -30.429142 139.4373703 C-30.51758875 123.79569049 -30.58372474 108.154098 -30.62521744 92.51222992 C-30.64581782 84.9478404 -30.67388981 77.38361811 -30.71972656 69.81933594 C-30.75967202 63.22411372 -30.78541991 56.62901264 -30.79432273 50.03367281 C-30.79952454 46.54340901 -30.81169713 43.05349168 -30.84088898 39.56333923 C-30.87325928 35.66130213 -30.87392321 31.75959992 -30.87207031 27.85742188 C-30.88645142 26.70799103 -30.90083252 25.55856018 -30.91564941 24.3742981 C-30.87640297 16.72878897 -29.84369623 11.27431872 -24.63671875 5.359375 C-24.06953125 4.91335937 -23.50234375 4.46734375 -22.91796875 4.0078125 C-22.35078125 3.54632813 -21.78359375 3.08484375 -21.19921875 2.609375 C-14.8519888 -1.76130527 -7.41575872 -1.89287541 0 0 Z " transform="translate(395.41796875,184.6171875)" style="fill: #111111;"></path><path d="M0 0 C1.61400306 -0.00345889 3.22800376 -0.00822501 4.84199953 -0.01418173 C9.26655976 -0.02668956 13.69092552 -0.02052233 18.11548638 -0.01122308 C22.89128951 -0.00443205 27.66705933 -0.01491409 32.44285583 -0.02316284 C41.79446114 -0.03650178 51.14599421 -0.03362171 60.49760234 -0.02492492 C68.09794067 -0.01814942 75.69825876 -0.01723108 83.29859924 -0.02049637 C84.38037179 -0.02095607 85.46214433 -0.02141577 86.57669786 -0.0218894 C88.77430674 -0.02284857 90.97191562 -0.02382121 93.16952449 -0.02480717 C113.77588759 -0.03336153 134.38221064 -0.02352619 154.98856717 -0.00740607 C172.66927805 0.00599715 190.34992984 0.00366907 208.03063965 -0.01016235 C228.56333435 -0.02621733 249.09599396 -0.03253756 269.62869406 -0.02332556 C271.81821282 -0.02236992 274.00773159 -0.0214268 276.19725037 -0.02049637 C277.27453188 -0.02003354 278.3518134 -0.01957072 279.46173981 -0.01909386 C287.05283531 -0.01650373 294.64390855 -0.02087548 302.23500061 -0.02793503 C311.48616469 -0.0363493 320.7372524 -0.03407139 329.98840773 -0.0180928 C334.70836822 -0.01020914 339.42820139 -0.00712015 344.14816093 -0.01704025 C348.46970379 -0.02598561 352.79100142 -0.02105688 357.11252207 -0.0051076 C358.6749966 -0.00175913 360.23749188 -0.00345536 361.79995304 -0.01073496 C371.19376768 -0.05114076 378.42811421 0.2295363 386.4979248 5.50595093 C391.15940261 10.37931409 393.41740059 15.56268341 393.8104248 22.31845093 C393.5241507 28.07077116 391.68985308 32.77320823 388.2479248 37.38095093 C382.01879051 42.84529827 376.85718424 44.50278208 368.6772747 44.515172 C368.01550118 44.51752423 367.35372766 44.51987647 366.67190039 44.52229998 C364.44469247 44.52898007 362.21754302 44.52853205 359.99032593 44.52812195 C358.38120279 44.53142119 356.77208047 44.53514688 355.16295922 44.53926343 C350.73328614 44.54928468 346.30362661 44.55300042 341.87394381 44.55565274 C337.09940292 44.5595554 332.32487278 44.56913375 327.55033875 44.5778656 C316.01607924 44.59763084 304.48181886 44.60769619 292.94754666 44.61659339 C287.51657599 44.6209761 282.08560629 44.62634295 276.65463638 44.63158226 C258.60219716 44.64859443 240.54975855 44.66308886 222.49731255 44.670331 C217.81229527 44.67224091 213.127278 44.67416124 208.44226074 44.67611694 C206.69559284 44.67684255 206.69559284 44.67684255 204.91363873 44.67758282 C186.04806086 44.68588411 167.18254638 44.71122276 148.3169962 44.74369762 C128.95066748 44.7767629 109.58437098 44.79477927 90.21801388 44.79797524 C79.34349266 44.8001408 68.46906388 44.80889629 57.59457016 44.83443642 C48.33384846 44.8561361 39.07324166 44.8641974 29.81249742 44.85446963 C25.0882193 44.84992287 20.36417828 44.85183315 15.63993263 44.87123108 C11.31191122 44.88884848 6.98430014 44.88787661 2.65627445 44.87233379 C1.09363733 44.86995556 -0.4690281 44.87429246 -2.03162195 44.88616244 C-20.72201038 45.01930438 -20.72201038 45.01930438 -27.68168652 38.60160619 C-33.38514558 32.35239731 -34.25740224 27.29163777 -34.1348877 18.87313843 C-33.4572557 12.69147512 -30.71155428 9.34043001 -26.4395752 5.06845093 C-17.94041645 -0.26823014 -9.70882964 -0.04523404 0 0 Z " transform="translate(57.7520751953125,33.619049072265625)" style="fill: #111111;"></path><path d="M0 0 C1.40710945 -0.00761181 1.40710945 -0.00761181 2.84264535 -0.0153774 C4.39134976 -0.01612404 4.39134976 -0.01612404 5.97134113 -0.01688576 C7.61443263 -0.02345914 7.61443263 -0.02345914 9.2907179 -0.03016531 C12.98018455 -0.04357499 16.6696273 -0.04973705 20.35911274 -0.0558567 C22.99678955 -0.06375593 25.63446328 -0.0720196 28.27213764 -0.08063698 C36.20127873 -0.1051574 44.13042608 -0.11978754 52.05959341 -0.13269705 C54.29921754 -0.13640922 56.53884105 -0.14038243 58.77846456 -0.14444971 C72.68689052 -0.1696863 86.59531748 -0.19173892 100.50376129 -0.20417786 C103.72523915 -0.20710754 106.94671699 -0.21006921 110.16819477 -0.21308327 C110.96887516 -0.21382932 111.76955554 -0.21457537 112.59449897 -0.21534403 C125.56405613 -0.22799674 138.53347617 -0.26121889 151.50296923 -0.3028851 C164.81916988 -0.34531439 178.13530035 -0.36887402 191.45156842 -0.37409842 C198.92790003 -0.3775114 206.40401735 -0.38925307 213.8802824 -0.42220116 C220.24769964 -0.45021658 226.61485865 -0.46119457 232.98233273 -0.4500057 C236.2300831 -0.44482267 239.47718013 -0.45041409 242.72487545 -0.47247124 C246.24970242 -0.49510759 249.7731678 -0.48689162 253.29800129 -0.47098732 C254.82997529 -0.49181045 254.82997529 -0.49181045 256.39289826 -0.51305425 C263.77404661 -0.43101019 268.65389357 1.44918933 273.97447747 6.61510813 C278.87458038 12.12834628 279.92458676 17.18436204 279.76072407 24.35576439 C278.99413782 31.26474422 275.55506036 35.57123955 270.33103657 39.91045189 C264.64978103 43.6192133 259.35305711 43.42445659 252.7683382 43.40443993 C251.67940213 43.40897104 250.59046605 43.41350215 249.46853191 43.41817057 C245.81287532 43.43084968 242.15736704 43.42919192 238.50169086 43.42754173 C235.88342312 43.43352478 233.26515715 43.44032981 230.6468935 43.44789696 C224.26873798 43.46450327 217.89061943 43.47000634 211.5124441 43.47112171 C206.32717621 43.47207239 201.1419205 43.47618366 195.95665646 43.48252296 C181.25159623 43.50013458 166.54656519 43.50936199 151.84149434 43.50786202 C150.65259582 43.50774215 150.65259582 43.50774215 149.43967915 43.50761986 C148.24932692 43.50749722 148.24932692 43.50749722 147.03492717 43.5073721 C134.17544483 43.50655928 121.31607966 43.52569602 108.45663121 43.55389659 C95.24884099 43.58263222 82.0411079 43.5964365 68.83328563 43.59470904 C61.41962538 43.59404536 54.00608794 43.59952797 46.59245586 43.62106514 C39.61979047 43.64119162 32.64738844 43.64059626 25.67471027 43.62603188 C23.11570895 43.62393824 20.55669154 43.62867752 17.99771786 43.64075279 C14.50379701 43.65617186 11.01077465 43.64691793 7.51687336 43.63149071 C6.50470349 43.64177783 5.49253363 43.65206496 4.44969195 43.66266382 C-2.70464104 43.59287717 -8.12966467 42.14609061 -13.57130718 37.35576439 C-14.01732281 36.78857689 -14.46333843 36.22138939 -14.92286968 35.63701439 C-15.38435406 35.06982689 -15.84583843 34.50263939 -16.32130718 33.91826439 C-20.43442768 27.94507029 -20.21128805 22.23899303 -19.54786968 15.13701439 C-17.83259645 8.41705154 -13.37087329 4.59255452 -7.54786968 1.13701439 C-4.70414048 0.18910466 -2.94771297 0.00846398 0 0 Z " transform="translate(43.54786968231201,183.8629856109619)" style="fill: #111111;"></path><path d="M0 0 C0.65199598 -0.00453111 1.30399195 -0.00906223 1.97574538 -0.01373065 C4.15274153 -0.02635497 6.32948688 -0.02475558 8.5065155 -0.02310181 C10.07061076 -0.02908833 11.63470307 -0.03589417 13.1987915 -0.04345703 C17.44271471 -0.06111251 21.68655724 -0.06581224 25.93051362 -0.0670886 C28.58379786 -0.06851112 31.23706165 -0.07278264 33.89034081 -0.07808304 C43.1520607 -0.09658244 52.41372306 -0.10475384 61.67546082 -0.10317993 C70.30001983 -0.10197884 78.92432846 -0.12307504 87.54882413 -0.15466726 C94.96046555 -0.1808463 102.37202528 -0.19154653 109.78371257 -0.19026911 C114.20722456 -0.18975992 118.63051405 -0.19541933 123.05397987 -0.21662521 C127.21636481 -0.2360349 131.37831563 -0.23611362 135.54071617 -0.22159195 C137.06445833 -0.21950606 138.58822785 -0.22419167 140.11192322 -0.23631287 C149.13551179 -0.30342135 156.30307477 -0.20037699 163.40177917 6.04867554 C163.8477948 6.61586304 164.29381042 7.18305054 164.75334167 7.76742554 C165.44556824 8.61820679 165.44556824 8.61820679 166.15177917 9.48617554 C170.26489967 15.45936963 170.04176004 21.1654469 169.37834167 28.26742554 C167.66306844 34.98738838 163.20134528 38.81188541 157.37834167 42.26742554 C154.0142238 43.38879816 151.46805698 43.40176769 147.92126465 43.41459656 C146.9335833 43.42011159 146.9335833 43.42011159 145.9259488 43.42573804 C143.71516629 43.43676851 141.50443079 43.44061764 139.29362488 43.44442749 C137.71012218 43.45069269 136.12662095 43.45733954 134.54312134 43.46434021 C129.33846561 43.48537846 124.1338096 43.49574319 118.92912292 43.50570679 C117.13665947 43.5097546 115.34419616 43.51387153 113.55173302 43.51805687 C105.12942358 43.53710896 96.7071229 43.55133928 88.28479606 43.55966884 C78.5673862 43.56943815 68.85020432 43.59574955 59.13287479 43.63616973 C51.6193737 43.66634861 44.10593788 43.68113944 36.59237736 43.68444985 C32.10622398 43.68679856 27.62031413 43.6957354 23.13422585 43.72091103 C18.911151 43.74422747 14.68847941 43.74841073 10.46535683 43.73814964 C8.91903338 43.73765502 7.37268984 43.74395386 5.82642746 43.75770569 C-2.19581151 43.82503515 -8.7537784 43.84791121 -15.62165833 39.26742554 C-17.68025208 37.23226929 -17.68025208 37.23226929 -19.05915833 35.20492554 C-19.76878723 34.19752319 -19.76878723 34.19752319 -20.49275208 33.16976929 C-23.71125154 27.74620791 -23.25528657 21.35169672 -22.62165833 15.26742554 C-20.28957367 8.94466153 -15.35582675 4.10047201 -9.34801197 1.15132713 C-6.10512294 0.0999614 -3.40979217 0.0098108 0 0 Z " transform="translate(46.62165832519531,332.7325744628906)" style="fill: #111111;"></path></svg>