<svg version="1.1" xmlns="http://www.w3.org/2000/svg"  viewBox="0 0 512 512" width="512" height="512"><path d="M0 0 C13.79540785 11.60683156 18.11192316 29.06687603 19.7929039 46.36146545 C19.96477304 48.37581102 20.12833615 50.39087847 20.28460693 52.40649414 C20.36970764 53.49629357 20.45480834 54.58609301 20.54248786 55.70891666 C21.35445047 66.85161669 21.4699505 77.95398582 21.44628906 89.12109375 C21.44900985 91.33049636 21.45257678 93.53989806 21.45690918 95.7492981 C21.46590639 101.66668617 21.46254214 107.5840033 21.45615101 113.50139236 C21.45102443 119.74629126 21.45580069 125.9911848 21.45892334 132.23608398 C21.46277457 143.3835128 21.45662844 154.53091073 21.44640467 165.67833459 C21.43747271 175.72730386 21.43902585 185.77622688 21.44824219 195.82519531 C21.45897495 207.57514916 21.46289301 219.32507421 21.45701766 231.07503223 C21.45392798 237.26543599 21.45340463 243.4558081 21.46009064 249.64620972 C21.46594423 255.4708759 21.46172365 261.29545628 21.45030212 267.12011337 C21.44769775 269.23498264 21.44834637 271.34985937 21.45282745 273.46472549 C21.57517356 337.16737942 21.57517356 337.16737942 3.9375 356.875 C-4.79742929 364.54075781 -14.74412892 367.14797058 -26.0234375 367.01953125 C-45.75341824 365.61605839 -60.95202735 351.42742119 -74.7578125 338.55859375 C-76.92938949 336.53753563 -79.15553912 334.59821224 -81.41113281 332.67163086 C-86.28207293 328.41531023 -90.77417446 323.8231232 -95.2890625 319.1953125 C-97.11266412 317.34444385 -98.9369032 315.49420308 -100.76171875 313.64453125 C-103.5986226 310.76604477 -106.43133868 307.88370336 -109.25146484 304.98876953 C-126.94333134 286.8636581 -141.11044415 273.93664766 -167.4296875 273.46875 C-168.6528215 273.44113586 -168.6528215 273.44113586 -169.90066528 273.41296387 C-172.49620904 273.35467667 -175.09181921 273.30179743 -177.6875 273.25 C-233.186179 272.1193148 -233.186179 272.1193148 -250.6328125 255.1875 C-265.76522607 238.26523106 -267.95880305 216.72815644 -267.98046875 195.0234375 C-267.98379715 193.83634186 -267.98712555 192.64924622 -267.99055481 191.42617798 C-267.99558957 188.92686344 -267.99796421 186.42754226 -267.99780273 183.92822266 C-267.99998182 180.15645942 -268.01815481 176.38499264 -268.03710938 172.61328125 C-268.09824144 147.16417225 -267.36276927 122.56836172 -249.07421875 102.8515625 C-236.72528355 91.37707694 -221.92272814 88.10512146 -205.6015625 87.21875 C-204.82104523 87.17575272 -204.04052795 87.13275543 -203.23635864 87.0884552 C-197.59251082 86.79731074 -191.95518478 86.64871268 -186.3046875 86.57421875 C-185.51406921 86.56223953 -184.72345093 86.55026031 -183.90887451 86.53791809 C-180.69460171 86.48985042 -177.48071726 86.44189876 -174.26611328 86.42407227 C-146.30573676 86.24060523 -130.78941357 75.99132259 -111.3671875 56.3671875 C-110.51246857 55.50868195 -109.65774963 54.65017639 -108.77713013 53.76565552 C-106.07811157 51.05455158 -103.38239027 48.34020716 -100.6875 45.625 C-97.12535458 42.03610505 -93.55980303 38.45064393 -89.9921875 34.8671875 C-88.78875198 33.65130447 -88.78875198 33.65130447 -87.56100464 32.41085815 C-82.81196194 27.64138813 -77.92234197 23.12840095 -72.8125 18.75 C-71.68126169 17.7435004 -70.55198748 16.73478326 -69.42578125 15.72265625 C-61.98512644 9.12454945 -54.53038137 3.60760819 -45.8125 -1.25 C-45.05066406 -1.68054688 -44.28882813 -2.11109375 -43.50390625 -2.5546875 C-29.46074987 -10.05532073 -12.93128316 -9.41828457 0 0 Z " transform="translate(293.8125,76.25)" style="fill: #111111;"></path><path d="M0 0 C1.72863281 -0.04640625 1.72863281 -0.04640625 3.4921875 -0.09375 C11.11490507 1.15211352 16.58294948 6.51756885 21.8125 11.89453125 C22.69446045 12.78285896 22.69446045 12.78285896 23.59423828 13.68913269 C25.44507931 15.55658059 27.28512983 17.43424891 29.125 19.3125 C30.38861985 20.59118995 31.65293691 21.86919131 32.91796875 23.14648438 C35.9950857 26.25643139 39.06258055 29.37558182 42.125 32.5 C46.40207759 28.92183244 50.46409665 25.26056568 54.33984375 21.2421875 C55.28275335 20.27690419 56.22612678 19.31207379 57.16992188 18.34765625 C58.62034322 16.86018303 60.06738536 15.36991393 61.5065918 13.87158203 C73.45244217 1.46088889 73.45244217 1.46088889 82.46875 -0.06640625 C90.75299868 -0.05615347 95.70893416 1.17452012 101.6484375 6.9921875 C105.68211013 11.49218066 107.41322769 15.81653321 107.5 21.8125 C107.52835938 22.69550781 107.55671875 23.57851562 107.5859375 24.48828125 C106.43119658 32.03324099 101.94366156 37.25804532 96.609375 42.40625 C95.99354553 43.01641968 95.37771606 43.62658936 94.7432251 44.25524902 C92.79642878 46.17986157 90.83612494 48.09000129 88.875 50 C87.54334806 51.31156376 86.21260954 52.6240556 84.8828125 53.9375 C81.64066365 57.1358207 78.38633297 60.3212485 75.125 63.5 C76.73942862 67.62398598 79.73677152 70.29762218 82.8671875 73.296875 C84.02762412 74.43200512 85.18777119 75.5674313 86.34765625 76.703125 C88.16944226 78.47546183 89.99423504 80.24444639 91.82470703 82.0078125 C93.59794825 83.72010605 95.35808989 85.44507019 97.1171875 87.171875 C97.92988602 87.94419464 97.92988602 87.94419464 98.75900269 88.7321167 C103.25592423 93.16989258 106.50697559 98.11904292 107.65625 104.40625 C107.56981899 111.58002374 106.51880298 116.96446046 101.44140625 122.25390625 C96.43167951 126.72495269 92.72363764 128.793855 85.875 128.875 C84.79734375 128.90335938 83.7196875 128.93171875 82.609375 128.9609375 C74.79421668 127.92709369 69.54219534 123.50023629 64.21875 117.984375 C63.60858032 117.36854553 62.99841064 116.75271606 62.36975098 116.1182251 C60.44513843 114.17142878 58.53499871 112.21112494 56.625 110.25 C55.31343624 108.91834806 54.0009444 107.58760954 52.6875 106.2578125 C49.4891793 103.01566365 46.3037515 99.76133297 43.125 96.5 C38.75257363 100.15317239 34.62028528 103.90978195 30.65625 108.01171875 C29.66320667 109.02712932 28.66970339 110.04209025 27.67578125 111.05664062 C26.14410728 112.62543864 24.61579931 114.1970575 23.09521484 115.77661133 C21.60398734 117.32265281 20.10007319 118.85539987 18.59375 120.38671875 C17.71138672 121.29639404 16.82902344 122.20606934 15.91992188 123.14331055 C10.16345697 127.99718509 4.48610629 129.06629719 -2.94140625 128.84375 C-9.04271259 128.12881663 -13.09091066 125.62652805 -17.25 121.1875 C-21.42867842 115.86195603 -22.4603778 110.17330686 -21.875 103.5 C-18.95008022 91.60532625 -7.72418754 83.20645868 0.6875 74.875 C1.60080078 73.96621094 2.51410156 73.05742187 3.45507812 72.12109375 C5.67607971 69.91172045 7.89940033 67.70473969 10.125 65.5 C8.52429121 61.46838633 5.6649105 58.83469589 2.6015625 55.88671875 C1.48685585 54.79244332 0.37227654 53.69803814 -0.7421875 52.60351562 C-2.49287834 50.89617569 -4.24597369 49.19140231 -6.00195312 47.48950195 C-7.70324653 45.83687859 -9.39490794 44.17483398 -11.0859375 42.51171875 C-11.60586273 42.01355148 -12.12578796 41.51538422 -12.66146851 41.00212097 C-18.11253112 35.62482653 -21.53087846 29.97357996 -22.125 22.25 C-21.65655315 15.22329732 -19.18503375 10.36981571 -14.66796875 5.04296875 C-10.15803611 1.16187203 -5.86095271 0.05221339 0 0 Z " transform="translate(383.875,191.5)" style="fill: #111111;"></path></svg>