<svg version="1.1" xmlns="http://www.w3.org/2000/svg"  viewBox="0 0 512 512" width="512" height="512"><path d="M0 0 C0.77649902 0.41024414 1.55299805 0.82048828 2.35302734 1.24316406 C14.11396658 7.48961848 25.44332124 14.2645224 36.63232422 21.47949219 C39.8169694 23.52465306 43.02070092 25.53881268 46.22485352 27.55322266 C55.16851426 33.17723962 64.05289172 38.88888788 72.91162109 44.64550781 C75.00743117 46.00481975 77.10664574 47.35870785 79.20703125 48.7109375 C124.39685311 77.81783905 124.39685311 77.81783905 144 96 C144.68964844 96.61230469 145.37929688 97.22460938 146.08984375 97.85546875 C160.00134284 110.77525702 166.78624789 127.95931504 168.2890625 146.58203125 C168.79239814 166.60106254 162.66128063 184.23816086 149 199 C147.72576172 200.39412109 147.72576172 200.39412109 146.42578125 201.81640625 C130.51161274 218.70366333 109.95525643 232.03089737 90.27563477 244.11108398 C84.40466654 247.717567 78.63765098 251.47327966 72.875 255.25 C61.64491068 262.5987007 50.35073153 269.83919147 39 277 C38.14229004 277.54366211 37.28458008 278.08732422 36.40087891 278.64746094 C-29.94724536 320.64313739 -29.94724536 320.64313739 -60.875 315.3125 C-79.31818692 311.10359522 -95.42709393 300.70023241 -106.1875 285.05859375 C-123.4522227 255.9243742 -121.15884694 217.21060239 -121.16796875 184.6640625 C-121.16939744 183.31189328 -121.17099451 181.95972422 -121.17275429 180.60755539 C-121.18195401 173.52075532 -121.18609633 166.43397381 -121.18530273 159.34716797 C-121.18470469 152.83192761 -121.19521677 146.31677076 -121.2110464 139.80155146 C-121.22430434 134.13455192 -121.22947909 128.46757902 -121.22884732 122.80056417 C-121.22859744 119.44864775 -121.2321413 116.09686362 -121.24202538 112.74495316 C-121.46444459 29.51117498 -121.46444459 29.51117498 -96.8203125 3.71875 C-67.69130925 -24.16868918 -32.67526712 -17.3526402 0 0 Z " transform="translate(278,106)" style="fill: #111111;"></path><path d="M0 0 C5.45784513 3.73596282 8.41130116 9.10866089 10.04296875 15.3984375 C10.34117039 19.49295944 10.31694758 23.57921059 10.30366516 27.68307495 C10.30940348 29.55664852 10.30940348 29.55664852 10.31525773 31.46807206 C10.32553689 34.92798432 10.32335613 38.38779295 10.31907713 41.84771371 C10.31660975 45.58195885 10.32562424 49.31617904 10.33311462 53.05041504 C10.34586344 60.36357003 10.34765508 67.6766883 10.34531436 74.98985253 C10.3435312 80.9345348 10.34528081 86.87920593 10.3495388 92.82388687 C10.35043159 94.0930936 10.35043159 94.0930936 10.35134241 95.38794086 C10.35255416 97.10688781 10.3537683 98.82583476 10.35498478 100.5447817 C10.36586108 116.66499452 10.36369744 132.78518641 10.35759994 148.90540041 C10.35243105 163.64978767 10.36368531 178.39410885 10.38269816 193.13848303 C10.40207444 208.28088404 10.4103329 223.42325379 10.4065749 238.56566727 C10.4046625 247.06581237 10.40715426 255.56590124 10.42128944 264.06603622 C10.43320156 271.30254128 10.43461007 278.53895548 10.42249928 285.77546178 C10.4166093 289.46658931 10.41551432 293.15755067 10.42750168 296.84866714 C10.44035342 300.8525208 10.42989885 304.85597873 10.41719055 308.85983276 C10.42456484 310.02306749 10.43193912 311.18630222 10.43953687 312.38478649 C10.38648103 320.32229571 9.33286786 325.89623887 4.91796875 332.6484375 C0.04460559 337.30991531 -5.13876373 339.56791329 -11.89453125 339.9609375 C-17.64685149 339.6746634 -22.34928855 337.84036578 -26.95703125 334.3984375 C-31.94820136 328.70870605 -34.07830983 323.6705939 -34.08845901 316.14967728 C-34.09422073 314.5462528 -34.09422073 314.5462528 -34.10009885 312.91043591 C-34.09923237 311.73691406 -34.09836588 310.56339221 -34.09747314 309.35430908 C-34.10044427 308.10696889 -34.10341539 306.85962869 -34.10647655 305.57449031 C-34.11454369 302.1100869 -34.11633596 298.64570422 -34.11707401 295.18129253 C-34.11892506 291.44565462 -34.12647266 287.71002745 -34.13320923 283.97439575 C-34.14679102 275.804936 -34.15281702 267.63548116 -34.15721989 259.466012 C-34.15998255 254.36492115 -34.16421995 249.26383219 -34.16872406 244.16274261 C-34.18091649 230.03918705 -34.19121588 215.91563301 -34.19459915 201.7920723 C-34.19481872 200.88813623 -34.19503828 199.98420017 -34.1952645 199.05287211 C-34.19548278 198.1467741 -34.19570106 197.24067609 -34.19592595 196.30712056 C-34.19636942 194.47102308 -34.19681598 192.6349256 -34.19726562 190.79882812 C-34.19748705 189.88806049 -34.19770848 188.97729286 -34.19793662 188.03892621 C-34.20188458 173.28148232 -34.21933862 158.5240878 -34.24262515 143.76666299 C-34.26634032 128.61528948 -34.27880108 113.46394076 -34.27996707 98.3125484 C-34.28088373 89.80566134 -34.28663388 81.29883863 -34.30478668 72.7919693 C-34.3201899 65.54810242 -34.32530683 58.30431976 -34.31704858 51.06043962 C-34.31314285 47.36527103 -34.31406777 43.67027205 -34.32810593 39.97512436 C-34.34319448 35.966794 -34.3349761 31.95884553 -34.32452393 27.95050049 C-34.33258033 26.78590152 -34.34063673 25.62130255 -34.34893727 24.42141271 C-34.30044111 16.47800513 -33.25017971 10.90560574 -28.83203125 4.1484375 C-20.69542221 -3.63440593 -10.06364788 -5.02291806 0 0 Z " transform="translate(99.95703125,87.6015625)" style="fill: #111111;"></path></svg>