<svg version="1.1" xmlns="http://www.w3.org/2000/svg"  viewBox="0 0 512 512" width="512" height="512"><path d="M0 0 C2.53849321 -0.00135422 5.07698617 -0.00330095 7.61547852 -0.00579834 C13.55234919 -0.00908281 19.48914726 -0.0022477 25.42600727 0.0085032 C30.10011473 0.01600934 34.77413785 0.01334702 39.44824219 0.00488281 C46.00343204 -0.00687197 52.5585421 -0.00845558 59.11373901 -0.00200653 C61.56908183 -0.00069667 64.02442826 -0.00222109 66.47976685 -0.00696564 C108.6773124 -0.07066357 150.390542 1.01776611 183.4375 30.265625 C184.12199219 30.86632812 184.80648438 31.46703125 185.51171875 32.0859375 C213.14058049 57.97748745 217.36771895 95.86191863 218.55250549 131.74914551 C218.72423711 139.77515546 218.71863678 147.80066965 218.703125 155.828125 C218.70447922 158.36661821 218.70642595 160.90511117 218.70892334 163.44360352 C218.71220781 169.38047419 218.7053727 175.31727226 218.6946218 181.25413227 C218.68711566 185.92823973 218.68977798 190.60226285 218.69824219 195.27636719 C218.70999697 201.83155704 218.71158058 208.3866671 218.70513153 214.94186401 C218.70382167 217.39720683 218.70534609 219.85255326 218.71009064 222.30789185 C218.77487229 265.22336228 217.42759098 307.00307267 187.4375 340.265625 C186.85355469 340.93335938 186.26960938 341.60109375 185.66796875 342.2890625 C161.02573799 368.86524049 124.41665363 372.56777099 90.4375 374.265625 C81.25196506 374.5697458 72.06447814 374.5490072 62.875 374.53125 C60.33650679 374.53260422 57.79801383 374.53455095 55.25952148 374.53704834 C49.32265081 374.54033281 43.38585274 374.5334977 37.44899273 374.5227468 C32.77488527 374.51524066 28.10086215 374.51790298 23.42675781 374.52636719 C16.87156796 374.53812197 10.3164579 374.53970558 3.76126099 374.53325653 C1.30591817 374.53194667 -1.14942826 374.53347109 -3.60476685 374.53821564 C-45.79884178 374.60190833 -87.51980051 373.5156876 -120.5625 344.265625 C-121.25859375 343.65332031 -121.9546875 343.04101562 -122.671875 342.41015625 C-150.45017185 316.35411381 -154.48878697 278.69559575 -155.67778015 242.78375244 C-155.84944133 234.75720267 -155.84363782 226.73111857 -155.828125 218.703125 C-155.82947922 216.16463179 -155.83142595 213.62613883 -155.83392334 211.08764648 C-155.83720781 205.15077581 -155.8303727 199.21397774 -155.8196218 193.27711773 C-155.81211566 188.60301027 -155.81477798 183.92898715 -155.82324219 179.25488281 C-155.83499697 172.69969296 -155.83658058 166.1445829 -155.83013153 159.58938599 C-155.82882167 157.13404317 -155.83034609 154.67869674 -155.83509064 152.22335815 C-155.89878857 110.0258126 -154.81035889 68.312583 -125.5625 35.265625 C-124.66144531 34.23888672 -124.66144531 34.23888672 -123.7421875 33.19140625 C-92.18600682 -0.48218049 -42.75779758 -0.08262263 0 0 Z " transform="translate(224.5625,68.734375)" style="fill: #111111;"></path></svg>