<svg version="1.1" xmlns="http://www.w3.org/2000/svg"  viewBox="0 0 512 512" width="512" height="512"><path d="M0 0 C0.7528125 0.33016113 1.505625 0.66032227 2.28125 1.00048828 C14.91112294 6.59280564 26.93477517 13.29709732 39 20 C41.22245664 21.22822585 43.44511941 22.45607876 45.66796875 23.68359375 C58.58745913 30.8284147 71.45791941 38.053181 84.25244141 45.41943359 C87.2324966 47.13374649 90.21584124 48.84225726 93.19921875 50.55078125 C186.44311885 104.03610986 186.44311885 104.03610986 198.125 139.40625 C198.87533073 142.26327856 199.49032632 145.09134502 200 148 C200.226875 149.27875 200.45375 150.5575 200.6875 151.875 C202.85377529 174.32129926 198.07512615 195.11766503 183.71484375 212.81640625 C178.02312731 219.30189614 171.81034016 224.7286677 165 230 C164.03707031 230.77859375 163.07414062 231.5571875 162.08203125 232.359375 C146.25620321 244.95585156 128.44223001 254.84731655 111 265 C109.46182617 265.8957373 109.46182617 265.8957373 107.89257812 266.80957031 C92.91001645 275.52110877 77.83418426 284.05676625 62.69580078 292.49414062 C59.68956094 294.17340954 56.69081463 295.86553845 53.69384766 297.5612793 C38.6018241 306.09436347 23.44865264 314.55314256 7.83837891 322.10742188 C6.01533791 322.99255307 4.20118004 323.89431446 2.38671875 324.796875 C-4.68942207 328.26351734 -11.88527471 331.17874685 -19.3125 333.8125 C-20.12428711 334.10261963 -20.93607422 334.39273926 -21.77246094 334.69165039 C-42.42245211 341.80503114 -63.3737791 341.05409411 -83.125 331.8125 C-101.5173238 322.15292569 -114.89326277 308.3450651 -122.1328125 288.8046875 C-133.86585921 250.85726616 -131.169819 209.11333992 -131.13037109 169.8671875 C-131.1246743 164.14923589 -131.12805881 158.43133083 -131.133811 152.71338081 C-131.21646642 56.04036264 -131.21646642 56.04036264 -119 30 C-118.55914062 29.04996094 -118.11828125 28.09992188 -117.6640625 27.12109375 C-114.12285485 20.08759015 -109.54598293 14.55554497 -104 9 C-103.39671875 8.38511719 -102.7934375 7.77023438 -102.171875 7.13671875 C-72.1812901 -21.22394305 -34.42008678 -15.19486135 0 0 Z " transform="translate(221,93)" style="fill: #111111;"></path></svg>