<?xml version="1.0" standalone="no"?>
<!DOCTYPE svg PUBLIC "-//W3C//DTD SVG 20010904//EN"
 "http://www.w3.org/TR/2001/REC-SVG-20010904/DTD/svg10.dtd">
<svg version="1.0" xmlns="http://www.w3.org/2000/svg"
 width="512.000000pt" height="512.000000pt" viewBox="0 0 512.000000 512.000000"
 preserveAspectRatio="xMidYMid meet">

<g transform="translate(0.000000,512.000000) scale(0.100000,-0.100000)"
fill="#000000" stroke="none">
<path d="M3420 4679 c-44 -18 -90 -59 -112 -102 -18 -35 -23 -63 -26 -174 l-4
-133 -662 0 c-695 0 -840 -6 -1008 -40 -573 -116 -1053 -509 -1268 -1037 -88
-219 -122 -393 -122 -638 0 -331 90 -632 271 -911 73 -113 122 -147 210 -147
86 0 154 41 193 117 16 31 19 54 16 106 -3 61 -8 74 -55 146 -245 374 -280
829 -94 1220 180 378 511 635 942 731 65 14 196 17 1099 22 l1025 6 55 22 c62
26 98 56 138 115 24 37 27 51 27 122 0 125 -15 149 -234 365 -115 114 -201
191 -226 202 -43 20 -125 24 -165 8z"/>
<path d="M4370 3621 c-112 -36 -165 -109 -158 -221 3 -61 8 -74 55 -146 328
-500 270 -1133 -141 -1562 -187 -195 -413 -321 -691 -385 -87 -20 -124 -21
-1115 -27 -699 -4 -1035 -9 -1056 -17 -87 -31 -154 -90 -180 -160 -22 -57 -15
-153 15 -218 34 -72 383 -416 446 -441 100 -38 213 3 265 96 22 40 25 59 28
177 l4 133 662 0 c363 0 716 5 783 10 809 63 1459 642 1594 1419 28 162 28
402 0 565 -39 221 -129 449 -251 634 -44 66 -72 98 -103 116 -46 27 -118 39
-157 27z"/>
</g>
</svg>
