<?xml version="1.0" standalone="no"?>
<!DOCTYPE svg PUBLIC "-//W3C//DTD SVG 20010904//EN"
 "http://www.w3.org/TR/2001/REC-SVG-20010904/DTD/svg10.dtd">
<svg version="1.0" xmlns="http://www.w3.org/2000/svg"
 width="512.000000pt" height="512.000000pt" viewBox="0 0 512.000000 512.000000"
 preserveAspectRatio="xMidYMid meet">

<g transform="translate(0.000000,512.000000) scale(0.100000,-0.100000)"
fill="#000000" stroke="none">
<path d="M2985 4676 c-40 -17 -95 -72 -111 -113 -10 -22 -14 -76 -14 -163 l0
-130 -452 0 c-490 0 -641 -8 -800 -40 -573 -116 -1053 -509 -1268 -1037 -88
-219 -122 -393 -122 -638 0 -331 90 -632 271 -911 73 -113 122 -147 210 -147
86 0 154 41 193 117 16 31 19 54 16 106 -3 61 -8 74 -55 146 -245 374 -280
829 -94 1220 180 378 513 636 942 731 64 14 186 17 884 23 597 4 820 9 847 18
66 22 129 74 162 131 25 46 30 66 30 120 0 108 -33 156 -248 370 -110 109
-197 187 -219 196 -44 18 -131 19 -172 1z"/>
<path d="M4523 4670 c-42 -18 -194 -151 -361 -314 -70 -68 -85 -89 -98 -134
-51 -175 137 -329 299 -245 16 8 49 33 73 55 l44 41 0 -565 0 -564 26 -53 c44
-89 141 -133 237 -110 68 16 138 85 155 151 15 60 17 1439 2 1517 -14 73 -38
119 -87 168 -74 71 -200 94 -290 53z"/>
<path d="M4577 2334 c-70 -22 -128 -85 -162 -177 -167 -443 -511 -742 -980
-850 -87 -20 -123 -21 -1115 -26 l-1025 -6 -57 -23 c-71 -29 -139 -101 -158
-166 -17 -61 -9 -140 20 -201 30 -63 374 -408 435 -436 74 -34 176 -19 233 34
53 49 66 92 70 235 l4 132 661 0 c364 0 717 5 784 10 636 49 1186 418 1453
975 58 121 110 273 110 322 0 82 -65 158 -155 182 -50 14 -59 13 -118 -5z"/>
</g>
</svg>
