<?xml version="1.0" standalone="no"?>
<!DOCTYPE svg PUBLIC "-//W3C//DTD SVG 20010904//EN"
 "http://www.w3.org/TR/2001/REC-SVG-20010904/DTD/svg10.dtd">
<svg version="1.0" xmlns="http://www.w3.org/2000/svg"
 width="512.000000pt" height="512.000000pt" viewBox="0 0 512.000000 512.000000"
 preserveAspectRatio="xMidYMid meet">

<g transform="translate(0.000000,512.000000) scale(0.100000,-0.100000)"
fill="#000000" stroke="none">
<path d="M4107 4470 c-41 -12 -92 -54 -119 -97 -20 -33 -24 -55 -28 -161 -4
-101 -8 -126 -22 -136 -9 -7 -77 -18 -150 -24 -352 -32 -573 -154 -770 -428
-99 -138 -215 -328 -228 -372 -27 -89 26 -203 114 -243 75 -34 178 -19 233 33
13 12 53 69 90 127 167 263 264 371 370 411 110 42 189 49 520 50 185 0 333 4
363 11 68 15 138 64 174 123 24 39 31 63 34 117 4 60 0 76 -26 131 -33 70 -68
114 -245 302 -78 83 -136 136 -162 147 -42 20 -101 23 -148 9z"/>
<path d="M554 4036 c-43 -19 -101 -81 -115 -123 -30 -92 7 -198 88 -253 l36
-25 421 -6 c232 -4 453 -12 493 -18 139 -21 233 -73 314 -172 77 -94 181 -259
604 -949 464 -757 552 -896 641 -1017 194 -262 426 -383 786 -408 54 -4 105
-13 115 -20 15 -11 19 -34 23 -137 4 -106 8 -128 28 -161 41 -66 115 -107 191
-107 67 1 111 31 238 166 177 188 212 232 245 302 26 55 30 71 26 131 -3 54
-10 78 -34 117 -36 59 -106 108 -174 123 -30 7 -178 11 -363 11 -455 1 -528
18 -662 154 -109 110 -111 114 -750 1156 -371 606 -446 724 -523 830 -193 262
-392 377 -707 409 -163 16 -881 14 -921 -3z"/>
<path d="M2125 2116 c-48 -21 -83 -63 -172 -202 -194 -305 -276 -375 -476
-405 -40 -6 -261 -14 -493 -17 l-421 -7 -36 -25 c-21 -14 -50 -43 -65 -64 -24
-35 -27 -49 -27 -116 0 -67 3 -81 27 -116 15 -21 44 -50 65 -64 l37 -25 385
-3 c537 -5 688 12 860 93 188 89 313 219 508 526 89 140 103 171 103 231 0
115 -95 208 -211 208 -30 -1 -68 -7 -84 -14z"/>
</g>
</svg>
