<?xml version="1.0" standalone="no"?>
<!DOCTYPE svg PUBLIC "-//W3C//DTD SVG 20010904//EN"
 "http://www.w3.org/TR/2001/REC-SVG-20010904/DTD/svg10.dtd">
<svg version="1.0" xmlns="http://www.w3.org/2000/svg"
 width="512.000000pt" height="512.000000pt" viewBox="0 0 512.000000 512.000000"
 preserveAspectRatio="xMidYMid meet">

<g transform="translate(0.000000,512.000000) scale(0.100000,-0.100000)"
fill="#000000" stroke="none">
<path d="M1550 4562 c0 -4 201 -208 448 -455 l447 -447 340 0 340 0 -455 455
-455 455 -332 0 c-183 0 -333 -3 -333 -8z"/>
<path d="M3186 4115 l457 -455 454 0 c427 0 453 1 453 18 0 38 -44 172 -84
258 -58 121 -114 203 -205 297 -172 178 -364 279 -608 322 -67 12 -178 15
-505 15 l-419 0 457 -455z"/>
<path d="M1085 4414 c-88 -52 -152 -104 -231 -186 -87 -90 -143 -173 -200
-293 -43 -90 -94 -258 -83 -269 3 -4 310 -5 682 -4 l677 3 -393 393 -393 392
-59 -36z"/>
<path d="M550 2421 c0 -928 1 -944 51 -1106 25 -81 84 -203 137 -284 49 -74
171 -202 252 -263 89 -68 264 -152 385 -185 l100 -28 1035 -3 c733 -2 1058 0
1114 8 163 24 325 85 461 175 78 52 204 172 267 255 68 89 152 264 185 385
l28 100 3 908 3 907 -2011 0 -2010 0 0 -869z m2194 183 c535 -294 533 -293
544 -389 6 -59 -20 -128 -61 -159 -18 -13 -243 -140 -501 -281 -517 -285 -521
-286 -609 -247 -31 14 -55 34 -74 63 l-28 43 0 561 0 561 27 41 c36 55 98 85
163 80 43 -3 116 -40 539 -273z"/>
</g>
</svg>
