<?xml version="1.0" standalone="no"?>
<!DOCTYPE svg PUBLIC "-//W3C//DTD SVG 20010904//EN"
 "http://www.w3.org/TR/2001/REC-SVG-20010904/DTD/svg10.dtd">
<svg version="1.0" xmlns="http://www.w3.org/2000/svg"
 width="512.000000pt" height="512.000000pt" viewBox="0 0 512.000000 512.000000"
 preserveAspectRatio="xMidYMid meet">

<g transform="translate(0.000000,512.000000) scale(0.100000,-0.100000)"
fill="#000000" stroke="none">
<path d="M2360 4628 c-373 -35 -746 -179 -1048 -405 -104 -78 -289 -258 -372
-363 -229 -288 -375 -617 -437 -989 -27 -163 -24 -475 6 -645 39 -223 94 -391
192 -589 273 -554 768 -950 1373 -1098 152 -37 373 -62 501 -57 85 3 109 8
157 31 127 62 199 200 177 340 -5 28 -29 95 -54 147 -70 146 -86 213 -92 374
-4 91 -1 163 7 210 113 631 785 965 1362 675 87 -44 165 -60 237 -48 100 16
192 84 238 177 27 55 28 62 27 212 -2 449 -169 908 -461 1270 -83 103 -271
284 -370 357 -413 306 -929 450 -1443 401z m232 -511 c69 -34 141 -110 176
-185 21 -46 26 -73 26 -137 1 -69 -3 -89 -30 -145 -132 -279 -511 -287 -646
-13 -93 190 -10 406 190 490 80 34 204 29 284 -10z m1121 -515 c206 -96 292
-339 191 -538 -33 -65 -121 -152 -186 -182 -197 -95 -435 -8 -531 196 -29 62
-32 75 -32 167 1 88 4 107 28 155 76 158 215 244 382 237 65 -3 94 -9 148 -35z
m-2127 -125 c67 -34 138 -113 160 -180 53 -152 -19 -323 -164 -394 -46 -22
-70 -28 -132 -28 -65 0 -84 4 -142 33 -140 69 -209 224 -168 374 14 49 66 125
112 161 89 71 232 86 334 34z m-179 -1020 c167 -87 212 -295 93 -430 -51 -58
-93 -84 -158 -97 -112 -25 -237 35 -296 140 -28 49 -31 64 -31 135 0 92 19
136 82 197 62 60 115 79 203 75 44 -2 88 -11 107 -20z"/>
</g>
</svg>
