<?xml version="1.0" standalone="no"?>
<!DOCTYPE svg PUBLIC "-//W3C//DTD SVG 20010904//EN"
 "http://www.w3.org/TR/2001/REC-SVG-20010904/DTD/svg10.dtd">
<svg version="1.0" xmlns="http://www.w3.org/2000/svg"
 width="512.000000pt" height="512.000000pt" viewBox="0 0 512.000000 512.000000"
 preserveAspectRatio="xMidYMid meet">

<g transform="translate(0.000000,512.000000) scale(0.100000,-0.100000)"
fill="#000000" stroke="none">
<path d="M2624 4415 c-165 -36 -287 -130 -699 -535 -196 -192 -309 -296 -349
-320 -105 -61 -165 -71 -501 -80 -252 -7 -312 -12 -378 -29 -189 -50 -320
-172 -381 -359 -43 -130 -48 -195 -43 -580 4 -396 7 -419 75 -562 25 -53 54
-94 101 -141 134 -135 261 -169 621 -169 297 0 410 -20 523 -92 29 -18 185
-163 347 -323 163 -160 337 -323 389 -363 106 -82 231 -147 311 -162 156 -30
321 53 397 197 101 191 112 365 112 1663 0 1124 -11 1383 -65 1555 -73 227
-255 346 -460 300z"/>
<path d="M3695 3989 c-69 -5 -160 -18 -215 -32 l-95 -24 50 -6 c28 -4 86 -12
129 -18 455 -61 865 -414 1014 -874 89 -273 89 -584 1 -855 -98 -304 -324
-584 -599 -744 -128 -75 -314 -139 -442 -153 -32 -3 -58 -9 -58 -12 0 -9 122
-28 225 -37 162 -12 393 30 565 103 441 189 744 589 821 1085 15 100 6 398
-15 493 -103 456 -403 822 -814 988 -176 72 -355 99 -567 86z"/>
<path d="M3490 3374 c-14 -2 -56 -9 -95 -16 l-70 -11 87 -18 c126 -25 217 -61
296 -118 243 -173 366 -473 318 -771 -17 -105 -40 -171 -92 -267 -39 -73 -38
-71 -95 -136 -100 -113 -243 -201 -379 -232 -149 -34 -142 -30 -69 -43 36 -7
95 -12 130 -12 63 0 230 31 266 48 10 5 36 17 58 28 89 41 145 83 235 174 115
117 196 289 221 470 28 193 -36 437 -155 593 -141 185 -337 291 -576 310 -30
3 -66 3 -80 1z"/>
</g>
</svg>
